<?xml version="1.0" encoding="iso-8859-1"?>
<!-- Uploaded to: SVG Repo, www.svgrepo.com, Generator: SVG Repo Mixer Tools -->
<svg height="800px" width="800px" version="1.1" id="Layer_1" xmlns="http://www.w3.org/2000/svg" xmlns:xlink="http://www.w3.org/1999/xlink" 
	 viewBox="0 0 511.982 511.982" xml:space="preserve">
<path style="fill:#DA4453;" d="M443.235,68.748C397.408,22.921,337.332,0,277.271,0c-60.092,0-120.153,22.914-165.979,68.748
	c-22.953,22.945-40.108,49.459-51.577,77.755c-0.688,1.422-1.094,3.023-1.094,4.727c0,5.891,4.766,10.664,10.656,10.664
	c4.719,0,8.719-3.07,10.125-7.32l0.031,0.016c0.031-0.062,0.047-0.117,0.062-0.18c10.734-26.452,26.499-50.202,46.874-70.576
	c20.39-20.375,44.124-36.147,70.592-46.874c25.562-10.366,52.577-15.624,80.31-15.624c27.718,0,54.732,5.258,80.295,15.624
	c26.452,10.734,50.201,26.5,70.576,46.874c20.374,20.374,36.154,44.124,46.873,70.576c10.375,25.569,15.625,52.584,15.625,80.31
	s-5.25,54.741-15.625,80.302c-10.719,26.453-26.499,50.201-46.873,70.576c-20.375,20.375-44.124,36.156-70.576,46.873
	c-25.562,10.375-52.577,15.625-80.295,15.625c-2.656,0-5.281-0.062-7.922-0.156l21.109,21.109
	c55.592-3.109,110.309-25.891,152.776-68.357C534.888,309.021,534.888,160.409,443.235,68.748z"/>
<path style="fill:#ED5564;" d="M275.209,447.595l-36.14-21.764c0.641-0.641,1.016-1.047,1.109-1.156l-15.968-14.172l0.078-0.062
	c-0.172,0.188-1.797,1.906-4.766,4.016l-5.875,3.484c-5.031,2.516-11.796,4.719-20.156,4.891
	c-20.906,0.438-43.842-11.719-68.232-36.109c-24.39-24.375-36.53-47.342-36.108-68.232c0.391-19.516,11.906-30.342,12.39-30.795
	l-0.078,0.062l-14.171-15.946c-0.297,0.258-3.218,2.914-6.703,7.758l-16.203-42.796l-15.078-15.085l-28.5,28.491
	c-34.437,34.421-31.812,105.904,51.639,189.353C155.898,523,227.38,525.609,261.801,491.189l28.5-28.5L275.209,447.595z"/>
<g>
	<path style="fill:#434A54;" d="M131.526,274.851c4.875-4.875,4.875-12.781,0-17.648l-57.795-57.795
		c-4.875-4.875-12.765-4.875-17.64,0l-27.624,27.617c-4.875,4.875-4.875,12.772,0,17.647l57.795,57.787
		c4.875,4.875,12.766,4.875,17.64,0L131.526,274.851z"/>
	<path style="fill:#434A54;" d="M312.583,455.908c4.875-4.875,4.875-12.781,0-17.656l-57.78-57.795
		c-4.875-4.859-12.781-4.859-17.656,0.016l-27.624,27.609c-4.875,4.875-4.875,12.781,0,17.656l57.795,57.779
		c4.875,4.875,12.781,4.875,17.641,0L312.583,455.908z"/>
	<path style="fill:#434A54;" d="M285.224,304.365h-104.7c1.094-35.037,19.703-48.841,45.78-66.364
		c15.328-10.289,33.717-19.929,33.717-41.179c0-15.992-9.405-25.843-24.749-25.843c-22.562,0-26.062,18.398-26.5,36.358h-24.31
		v-3.945c0-32.851,19.937-53.881,51.467-53.881c29.795,0,49.514,18.179,49.514,45.999c0,28.913-20.594,41.616-42.062,55.857
		c-11.171,7.226-27.608,18.179-32.858,30.875h74.701V304.365z"/>
	<path style="fill:#434A54;" d="M411.611,268.015h-19.5v36.35h-24.092l-0.219-36.35h-65.061v-24.757l65.717-93.528h23.654v97.255
		h19.5v21.03H411.611z M368.238,180.612l-44.906,66.373h44.906V180.612z"/>
</g>
</svg>