<svg xmlns="http://www.w3.org/2000/svg" xmlns:xlink="http://www.w3.org/1999/xlink" width="500" zoomAndPan="magnify" viewBox="0 0 375 374.999991" height="500" preserveAspectRatio="xMidYMid meet" version="1.0"><defs><clipPath id="054b33e3ce"><path d="M 17.875 106.414062 L 48.398438 106.414062 L 48.398438 136.9375 L 17.875 136.9375 Z M 17.875 106.414062 " clip-rule="nonzero"/></clipPath><clipPath id="d82cae32c8"><path d="M 33.136719 106.414062 C 24.707031 106.414062 17.875 113.25 17.875 121.675781 C 17.875 130.105469 24.707031 136.9375 33.136719 136.9375 C 41.566406 136.9375 48.398438 130.105469 48.398438 121.675781 C 48.398438 113.25 41.566406 106.414062 33.136719 106.414062 Z M 33.136719 106.414062 " clip-rule="nonzero"/></clipPath><clipPath id="4c95216ccd"><path d="M 82.609375 141.863281 L 113.128906 141.863281 L 113.128906 172.382812 L 82.609375 172.382812 Z M 82.609375 141.863281 " clip-rule="nonzero"/></clipPath><clipPath id="353833ade7"><path d="M 97.867188 141.863281 C 89.441406 141.863281 82.609375 148.695312 82.609375 157.121094 C 82.609375 165.550781 89.441406 172.382812 97.867188 172.382812 C 106.296875 172.382812 113.128906 165.550781 113.128906 157.121094 C 113.128906 148.695312 106.296875 141.863281 97.867188 141.863281 Z M 97.867188 141.863281 " clip-rule="nonzero"/></clipPath><clipPath id="4c72ae6c07"><path d="M 74.261719 279.082031 L 104.78125 279.082031 L 104.78125 309.605469 L 74.261719 309.605469 Z M 74.261719 279.082031 " clip-rule="nonzero"/></clipPath><clipPath id="eed92e72d4"><path d="M 89.523438 279.082031 C 81.09375 279.082031 74.261719 285.914062 74.261719 294.34375 C 74.261719 302.769531 81.09375 309.605469 89.523438 309.605469 C 97.949219 309.605469 104.78125 302.769531 104.78125 294.34375 C 104.78125 285.914062 97.949219 279.082031 89.523438 279.082031 Z M 89.523438 279.082031 " clip-rule="nonzero"/></clipPath><clipPath id="ce77533186"><path d="M 132.152344 91.15625 L 162.675781 91.15625 L 162.675781 121.675781 L 132.152344 121.675781 Z M 132.152344 91.15625 " clip-rule="nonzero"/></clipPath><clipPath id="17d4de75e5"><path d="M 147.414062 91.15625 C 138.984375 91.15625 132.152344 97.988281 132.152344 106.414062 C 132.152344 114.84375 138.984375 121.675781 147.414062 121.675781 C 155.84375 121.675781 162.675781 114.84375 162.675781 106.414062 C 162.675781 97.988281 155.84375 91.15625 147.414062 91.15625 Z M 147.414062 91.15625 " clip-rule="nonzero"/></clipPath><clipPath id="6b92776e5a"><path d="M 83.625 69.566406 L 114.144531 69.566406 L 114.144531 100.085938 L 83.625 100.085938 Z M 83.625 69.566406 " clip-rule="nonzero"/></clipPath><clipPath id="adaaa45c76"><path d="M 98.882812 69.566406 C 90.457031 69.566406 83.625 76.398438 83.625 84.824219 C 83.625 93.253906 90.457031 100.085938 98.882812 100.085938 C 107.3125 100.085938 114.144531 93.253906 114.144531 84.824219 C 114.144531 76.398438 107.3125 69.566406 98.882812 69.566406 Z M 98.882812 69.566406 " clip-rule="nonzero"/></clipPath><clipPath id="acb21a4a4b"><path d="M 229.355469 245.292969 L 259.875 245.292969 L 259.875 275.8125 L 229.355469 275.8125 Z M 229.355469 245.292969 " clip-rule="nonzero"/></clipPath><clipPath id="99ad14690d"><path d="M 244.617188 245.292969 C 236.1875 245.292969 229.355469 252.125 229.355469 260.554688 C 229.355469 268.980469 236.1875 275.8125 244.617188 275.8125 C 253.042969 275.8125 259.875 268.980469 259.875 260.554688 C 259.875 252.125 253.042969 245.292969 244.617188 245.292969 Z M 244.617188 245.292969 " clip-rule="nonzero"/></clipPath><clipPath id="fcb2244856"><path d="M 98.882812 0 L 123.402344 0 L 123.402344 19.410156 L 98.882812 19.410156 Z M 98.882812 0 " clip-rule="nonzero"/></clipPath><clipPath id="3789bc3d34"><path d="M 111.144531 -5.109375 C 104.371094 -5.109375 98.882812 0.378906 98.882812 7.152344 C 98.882812 13.921875 104.371094 19.410156 111.144531 19.410156 C 117.914062 19.410156 123.402344 13.921875 123.402344 7.152344 C 123.402344 0.378906 117.914062 -5.109375 111.144531 -5.109375 Z M 111.144531 -5.109375 " clip-rule="nonzero"/></clipPath><clipPath id="b3f572fe5f"><path d="M 31.699219 0 L 53.96875 0 L 53.96875 21.589844 L 31.699219 21.589844 Z M 31.699219 0 " clip-rule="nonzero"/></clipPath><clipPath id="9e3a81885b"><path d="M 42.832031 -0.679688 C 36.683594 -0.679688 31.699219 4.304688 31.699219 10.457031 C 31.699219 16.605469 36.683594 21.589844 42.832031 21.589844 C 48.980469 21.589844 53.96875 16.605469 53.96875 10.457031 C 53.96875 4.304688 48.980469 -0.679688 42.832031 -0.679688 Z M 42.832031 -0.679688 " clip-rule="nonzero"/></clipPath><clipPath id="0de570d5f1"><path d="M 243.074219 0 L 263.984375 0 L 263.984375 20.910156 L 243.074219 20.910156 Z M 243.074219 0 " clip-rule="nonzero"/></clipPath><clipPath id="8e7d91899d"><path d="M 253.53125 0 C 247.753906 0 243.074219 4.679688 243.074219 10.457031 C 243.074219 16.230469 247.753906 20.910156 253.53125 20.910156 C 259.304688 20.910156 263.984375 16.230469 263.984375 10.457031 C 263.984375 4.679688 259.304688 0 253.53125 0 Z M 253.53125 0 " clip-rule="nonzero"/></clipPath><clipPath id="b783f11a1a"><path d="M 0 83.816406 L 22.269531 83.816406 L 22.269531 106.082031 L 0 106.082031 Z M 0 83.816406 " clip-rule="nonzero"/></clipPath><clipPath id="8334aa96d5"><path d="M 11.132812 83.816406 C 4.984375 83.816406 0 88.800781 0 94.949219 C 0 101.097656 4.984375 106.082031 11.132812 106.082031 C 17.285156 106.082031 22.269531 101.097656 22.269531 94.949219 C 22.269531 88.800781 17.285156 83.816406 11.132812 83.816406 Z M 11.132812 83.816406 " clip-rule="nonzero"/></clipPath><clipPath id="037ad964fe"><path d="M 0 129.070312 L 11.132812 129.070312 L 11.132812 141.863281 L 0 141.863281 Z M 0 129.070312 " clip-rule="nonzero"/></clipPath><clipPath id="1f61ce0c5a"><path d="M 4.738281 129.070312 C 1.207031 129.070312 -1.65625 131.933594 -1.65625 135.464844 C -1.65625 139 1.207031 141.863281 4.738281 141.863281 C 8.269531 141.863281 11.132812 139 11.132812 135.464844 C 11.132812 131.933594 8.269531 129.070312 4.738281 129.070312 Z M 4.738281 129.070312 " clip-rule="nonzero"/></clipPath><clipPath id="7ede9d2aa3"><path d="M 28.664062 341.769531 L 46.542969 341.769531 L 46.542969 359.644531 L 28.664062 359.644531 Z M 28.664062 341.769531 " clip-rule="nonzero"/></clipPath><clipPath id="b33d5227ab"><path d="M 37.601562 341.769531 C 32.667969 341.769531 28.664062 345.769531 28.664062 350.707031 C 28.664062 355.644531 32.667969 359.644531 37.601562 359.644531 C 42.539062 359.644531 46.542969 355.644531 46.542969 350.707031 C 46.542969 345.769531 42.539062 341.769531 37.601562 341.769531 Z M 37.601562 341.769531 " clip-rule="nonzero"/></clipPath><clipPath id="e9997fd2be"><path d="M 218.773438 141.863281 L 249.292969 141.863281 L 249.292969 172.382812 L 218.773438 172.382812 Z M 218.773438 141.863281 " clip-rule="nonzero"/></clipPath><clipPath id="7c8b434eba"><path d="M 234.03125 141.863281 C 225.605469 141.863281 218.773438 148.695312 218.773438 157.121094 C 218.773438 165.550781 225.605469 172.382812 234.03125 172.382812 C 242.460938 172.382812 249.292969 165.550781 249.292969 157.121094 C 249.292969 148.695312 242.460938 141.863281 234.03125 141.863281 Z M 234.03125 141.863281 " clip-rule="nonzero"/></clipPath><clipPath id="6e0f46bb9e"><path d="M 144.09375 216 L 174.613281 216 L 174.613281 246.519531 L 144.09375 246.519531 Z M 144.09375 216 " clip-rule="nonzero"/></clipPath><clipPath id="04e9eee6e6"><path d="M 159.355469 216 C 150.925781 216 144.09375 222.832031 144.09375 231.261719 C 144.09375 239.6875 150.925781 246.519531 159.355469 246.519531 C 167.78125 246.519531 174.613281 239.6875 174.613281 231.261719 C 174.613281 222.832031 167.78125 216 159.355469 216 Z M 159.355469 216 " clip-rule="nonzero"/></clipPath><clipPath id="5518d85774"><path d="M 151.820312 47.449219 L 173.53125 47.449219 L 173.53125 69.160156 L 151.820312 69.160156 Z M 151.820312 47.449219 " clip-rule="nonzero"/></clipPath><clipPath id="aa28223a00"><path d="M 162.675781 47.449219 C 156.679688 47.449219 151.820312 52.308594 151.820312 58.304688 C 151.820312 64.300781 156.679688 69.160156 162.675781 69.160156 C 168.667969 69.160156 173.53125 64.300781 173.53125 58.304688 C 173.53125 52.308594 168.667969 47.449219 162.675781 47.449219 Z M 162.675781 47.449219 " clip-rule="nonzero"/></clipPath><clipPath id="7265bea045"><path d="M 303.078125 135.464844 L 333.597656 135.464844 L 333.597656 165.988281 L 303.078125 165.988281 Z M 303.078125 135.464844 " clip-rule="nonzero"/></clipPath><clipPath id="f790518a49"><path d="M 318.335938 135.464844 C 309.910156 135.464844 303.078125 142.296875 303.078125 150.726562 C 303.078125 159.15625 309.910156 165.988281 318.335938 165.988281 C 326.765625 165.988281 333.597656 159.15625 333.597656 150.726562 C 333.597656 142.296875 326.765625 135.464844 318.335938 135.464844 Z M 318.335938 135.464844 " clip-rule="nonzero"/></clipPath><clipPath id="93c8a33417"><path d="M 297.808594 270.144531 L 315.683594 270.144531 L 315.683594 288.023438 L 297.808594 288.023438 Z M 297.808594 270.144531 " clip-rule="nonzero"/></clipPath><clipPath id="cb491d46f5"><path d="M 306.746094 270.144531 C 301.808594 270.144531 297.808594 274.148438 297.808594 279.082031 C 297.808594 284.019531 301.808594 288.023438 306.746094 288.023438 C 311.683594 288.023438 315.683594 284.019531 315.683594 279.082031 C 315.683594 274.148438 311.683594 270.144531 306.746094 270.144531 Z M 306.746094 270.144531 " clip-rule="nonzero"/></clipPath><clipPath id="a66a1ae943"><path d="M 285.199219 314.050781 L 303.078125 314.050781 L 303.078125 331.929688 L 285.199219 331.929688 Z M 285.199219 314.050781 " clip-rule="nonzero"/></clipPath><clipPath id="f2f08bbe0f"><path d="M 294.136719 314.050781 C 289.203125 314.050781 285.199219 318.054688 285.199219 322.992188 C 285.199219 327.925781 289.203125 331.929688 294.136719 331.929688 C 299.074219 331.929688 303.078125 327.925781 303.078125 322.992188 C 303.078125 318.054688 299.074219 314.050781 294.136719 314.050781 Z M 294.136719 314.050781 " clip-rule="nonzero"/></clipPath><clipPath id="0416938ad0"><path d="M 100.753906 342.605469 L 118.628906 342.605469 L 118.628906 360.480469 L 100.753906 360.480469 Z M 100.753906 342.605469 " clip-rule="nonzero"/></clipPath><clipPath id="729eb1d486"><path d="M 109.691406 342.605469 C 104.753906 342.605469 100.753906 346.605469 100.753906 351.542969 C 100.753906 356.476562 104.753906 360.480469 109.691406 360.480469 C 114.628906 360.480469 118.628906 356.476562 118.628906 351.542969 C 118.628906 346.605469 114.628906 342.605469 109.691406 342.605469 Z M 109.691406 342.605469 " clip-rule="nonzero"/></clipPath><clipPath id="e30aef1d10"><path d="M 211.480469 290.160156 L 229.355469 290.160156 L 229.355469 308.039062 L 211.480469 308.039062 Z M 211.480469 290.160156 " clip-rule="nonzero"/></clipPath><clipPath id="6dfbe9ea0b"><path d="M 220.417969 290.160156 C 215.480469 290.160156 211.480469 294.164062 211.480469 299.097656 C 211.480469 304.035156 215.480469 308.039062 220.417969 308.039062 C 225.355469 308.039062 229.355469 304.035156 229.355469 299.097656 C 229.355469 294.164062 225.355469 290.160156 220.417969 290.160156 Z M 220.417969 290.160156 " clip-rule="nonzero"/></clipPath><clipPath id="687e8a904e"><path d="M 0 163.445312 L 17.875 163.445312 L 17.875 181.320312 L 0 181.320312 Z M 0 163.445312 " clip-rule="nonzero"/></clipPath><clipPath id="991c626439"><path d="M 8.9375 163.445312 C 4 163.445312 0 167.445312 0 172.382812 C 0 177.320312 4 181.320312 8.9375 181.320312 C 13.875 181.320312 17.875 177.320312 17.875 172.382812 C 17.875 167.445312 13.875 163.445312 8.9375 163.445312 Z M 8.9375 163.445312 " clip-rule="nonzero"/></clipPath><clipPath id="7184a918e4"><path d="M 357.125 155.738281 L 375 155.738281 L 375 173.613281 L 357.125 173.613281 Z M 357.125 155.738281 " clip-rule="nonzero"/></clipPath><clipPath id="78e9777028"><path d="M 366.0625 155.738281 C 361.125 155.738281 357.125 159.738281 357.125 164.675781 C 357.125 169.613281 361.125 173.613281 366.0625 173.613281 C 371 173.613281 375 169.613281 375 164.675781 C 375 159.738281 371 155.738281 366.0625 155.738281 Z M 366.0625 155.738281 " clip-rule="nonzero"/></clipPath><clipPath id="4fe8e4a641"><path d="M 285.9375 20.839844 L 303.8125 20.839844 L 303.8125 38.714844 L 285.9375 38.714844 Z M 285.9375 20.839844 " clip-rule="nonzero"/></clipPath><clipPath id="c3348d2cd6"><path d="M 294.875 20.839844 C 289.9375 20.839844 285.9375 24.839844 285.9375 29.777344 C 285.9375 34.714844 289.9375 38.714844 294.875 38.714844 C 299.8125 38.714844 303.8125 34.714844 303.8125 29.777344 C 303.8125 24.839844 299.8125 20.839844 294.875 20.839844 Z M 294.875 20.839844 " clip-rule="nonzero"/></clipPath><clipPath id="4016e2ff20"><path d="M 236.867188 26.289062 L 261.71875 26.289062 L 261.71875 51.140625 L 236.867188 51.140625 Z M 236.867188 26.289062 " clip-rule="nonzero"/></clipPath><clipPath id="1a9aadcb54"><path d="M 249.292969 26.289062 C 242.429688 26.289062 236.867188 31.855469 236.867188 38.714844 C 236.867188 45.578125 242.429688 51.140625 249.292969 51.140625 C 256.15625 51.140625 261.71875 45.578125 261.71875 38.714844 C 261.71875 31.855469 256.15625 26.289062 249.292969 26.289062 Z M 249.292969 26.289062 " clip-rule="nonzero"/></clipPath></defs><path fill="#ff3131" d="M 376.882812 163.730469 C 375.246094 163.234375 373.570312 163.964844 372.808594 165.421875 L 326 150.726562 C 326.015625 150.609375 326.03125 150.492188 326.03125 150.375 C 326.03125 150.359375 326.03125 150.359375 326.03125 150.34375 C 326.03125 150.199219 326.03125 150.039062 326.015625 149.878906 C 326.015625 149.820312 326 149.777344 325.984375 149.734375 C 325.984375 149.703125 325.984375 149.6875 325.972656 149.660156 C 325.941406 149.457031 325.882812 149.265625 325.8125 149.089844 C 325.796875 149.0625 325.796875 149.046875 325.78125 149.015625 C 325.707031 148.828125 325.621094 148.652344 325.503906 148.476562 C 325.488281 148.460938 325.488281 148.449219 325.488281 148.433594 C 325.476562 148.417969 325.476562 148.417969 325.460938 148.402344 C 325.359375 148.257812 325.257812 148.113281 325.140625 147.980469 C 325.109375 147.953125 325.09375 147.921875 325.066406 147.90625 C 324.949219 147.792969 324.816406 147.675781 324.6875 147.574219 C 324.65625 147.558594 324.628906 147.527344 324.597656 147.515625 C 324.453125 147.410156 324.308594 147.324219 324.160156 147.238281 C 324.148438 147.238281 324.132812 147.222656 324.132812 147.222656 C 323.972656 147.132812 323.796875 147.0625 323.621094 147.019531 C 323.445312 146.960938 323.257812 146.929688 323.066406 146.902344 C 323.050781 146.902344 323.039062 146.902344 323.039062 146.902344 C 322.863281 146.871094 322.671875 146.871094 322.484375 146.871094 C 322.46875 146.871094 322.453125 146.871094 322.4375 146.871094 C 322.367188 146.871094 322.308594 146.871094 322.234375 146.886719 C 322.160156 146.902344 322.101562 146.914062 322.046875 146.929688 C 321.957031 146.945312 321.855469 146.960938 321.769531 146.988281 C 321.664062 147.019531 321.546875 147.046875 321.445312 147.089844 C 321.402344 147.105469 321.34375 147.121094 321.300781 147.132812 L 254.566406 42.074219 C 255.226562 41.472656 255.648438 40.628906 255.691406 39.664062 C 255.691406 39.621094 255.675781 39.578125 255.675781 39.53125 L 294.792969 32.71875 C 295.347656 34.25 296.941406 35.226562 298.605469 34.933594 C 300.457031 34.613281 301.710938 32.832031 301.390625 30.980469 C 301.070312 29.125 299.289062 27.871094 297.4375 28.191406 C 295.773438 28.484375 294.605469 29.929688 294.605469 31.5625 L 255.488281 38.378906 C 255.121094 37.371094 254.304688 36.585938 253.269531 36.277344 L 257.019531 6.546875 C 258.65625 6.472656 260.042969 5.234375 260.261719 3.554688 C 260.492188 1.6875 259.164062 -0.0351562 257.296875 -0.269531 C 255.429688 -0.503906 253.722656 0.824219 253.472656 2.691406 C 253.253906 4.371094 254.304688 5.917969 255.867188 6.386719 L 252.117188 36.117188 C 250.539062 36.191406 249.242188 37.300781 248.917969 38.816406 L 110.476562 33.824219 C 110.476562 33.78125 110.460938 33.753906 110.449219 33.710938 C 110.433594 33.59375 110.402344 33.492188 110.375 33.386719 C 110.359375 33.34375 110.359375 33.316406 110.34375 33.269531 C 110.34375 33.269531 110.34375 33.257812 110.34375 33.257812 C 110.316406 33.15625 110.257812 33.050781 110.214844 32.949219 C 110.183594 32.878906 110.15625 32.789062 110.113281 32.714844 C 110.113281 32.703125 110.097656 32.703125 110.097656 32.6875 C 110.097656 32.671875 110.082031 32.671875 110.082031 32.660156 C 110.039062 32.585938 109.996094 32.511719 109.9375 32.441406 C 109.894531 32.367188 109.847656 32.292969 109.789062 32.21875 C 109.777344 32.207031 109.761719 32.191406 109.746094 32.164062 C 109.703125 32.117188 109.660156 32.074219 109.617188 32.03125 C 109.617188 32.03125 109.601562 32.015625 109.601562 32.015625 C 109.527344 31.941406 109.46875 31.855469 109.382812 31.78125 C 109.351562 31.769531 109.339844 31.753906 109.308594 31.722656 C 109.25 31.664062 109.175781 31.621094 109.121094 31.578125 C 109.015625 31.503906 108.914062 31.433594 108.796875 31.359375 C 108.726562 31.316406 108.636719 31.273438 108.566406 31.226562 C 108.550781 31.214844 108.535156 31.214844 108.507812 31.199219 L 111.335938 20.75 C 112.957031 20.894531 114.519531 19.871094 114.957031 18.238281 C 115.453125 16.425781 114.375 14.53125 112.550781 14.046875 C 110.726562 13.550781 108.84375 14.632812 108.359375 16.457031 C 107.921875 18.078125 108.738281 19.769531 110.214844 20.457031 L 107.382812 30.90625 C 107.351562 30.90625 107.339844 30.90625 107.308594 30.90625 C 107.265625 30.90625 107.238281 30.890625 107.191406 30.890625 C 107.164062 30.890625 107.132812 30.890625 107.105469 30.890625 C 107.015625 30.890625 106.945312 30.890625 106.855469 30.90625 C 106.769531 30.90625 106.695312 30.921875 106.609375 30.9375 C 106.550781 30.949219 106.492188 30.949219 106.433594 30.964844 C 106.347656 30.980469 106.273438 31.007812 106.199219 31.023438 C 106.128906 31.039062 106.039062 31.066406 105.964844 31.097656 C 105.90625 31.109375 105.851562 31.125 105.792969 31.15625 C 105.71875 31.183594 105.660156 31.214844 105.585938 31.257812 C 105.515625 31.285156 105.441406 31.332031 105.367188 31.375 C 105.308594 31.402344 105.265625 31.433594 105.207031 31.460938 C 105.148438 31.503906 105.089844 31.550781 105.03125 31.59375 C 104.960938 31.652344 104.886719 31.695312 104.828125 31.753906 C 104.785156 31.796875 104.742188 31.828125 104.695312 31.871094 C 104.652344 31.914062 104.609375 31.972656 104.566406 32.015625 C 104.507812 32.089844 104.433594 32.148438 104.375 32.21875 C 104.332031 32.265625 104.300781 32.308594 104.273438 32.367188 C 104.230469 32.425781 104.199219 32.484375 104.171875 32.542969 C 104.140625 32.601562 104.097656 32.644531 104.070312 32.703125 L 53.683594 15.667969 C 53.933594 14.046875 52.996094 12.441406 51.40625 11.902344 C 49.625 11.304688 47.671875 12.269531 47.070312 14.046875 C 46.472656 15.828125 47.4375 17.785156 49.21875 18.382812 C 50.808594 18.921875 52.546875 18.207031 53.320312 16.777344 L 103.703125 33.824219 C 103.703125 33.839844 103.703125 33.855469 103.703125 33.855469 C 103.691406 33.898438 103.675781 33.941406 103.675781 34 C 103.675781 34.046875 103.675781 34.074219 103.675781 34.117188 C 103.675781 34.148438 103.660156 34.191406 103.660156 34.21875 C 103.660156 34.25 103.660156 34.277344 103.660156 34.308594 C 103.660156 34.367188 103.660156 34.425781 103.660156 34.484375 C 103.660156 34.585938 103.675781 34.671875 103.691406 34.773438 C 103.703125 34.847656 103.703125 34.90625 103.71875 34.980469 C 103.734375 35.023438 103.734375 35.082031 103.746094 35.125 C 103.777344 35.226562 103.804688 35.316406 103.835938 35.402344 C 103.863281 35.476562 103.878906 35.546875 103.910156 35.621094 C 103.921875 35.652344 103.9375 35.695312 103.953125 35.722656 C 103.996094 35.8125 104.039062 35.898438 104.082031 35.972656 C 104.128906 36.042969 104.15625 36.132812 104.214844 36.207031 C 104.230469 36.234375 104.246094 36.25 104.257812 36.277344 C 104.316406 36.351562 104.375 36.425781 104.433594 36.496094 L 34.039062 116.746094 C 34.023438 116.746094 34.023438 116.730469 34.007812 116.730469 C 33.992188 116.730469 33.992188 116.714844 33.980469 116.714844 C 33.949219 116.703125 33.921875 116.6875 33.890625 116.671875 C 33.863281 116.65625 33.832031 116.628906 33.804688 116.613281 C 33.773438 116.601562 33.746094 116.585938 33.703125 116.570312 C 33.65625 116.542969 33.601562 116.527344 33.554688 116.496094 C 33.511719 116.484375 33.453125 116.453125 33.410156 116.4375 C 33.351562 116.425781 33.308594 116.410156 33.25 116.394531 C 33.207031 116.382812 33.148438 116.367188 33.105469 116.351562 C 33.074219 116.335938 33.03125 116.335938 33 116.324219 C 32.929688 116.308594 32.871094 116.292969 32.796875 116.292969 C 32.738281 116.277344 32.664062 116.277344 32.605469 116.265625 C 32.550781 116.265625 32.503906 116.25 32.445312 116.25 C 32.433594 116.25 32.433594 116.25 32.417969 116.25 C 32.34375 116.25 32.257812 116.25 32.183594 116.25 C 32.109375 116.25 32.050781 116.25 31.980469 116.25 C 31.949219 116.25 31.90625 116.25 31.878906 116.25 C 31.847656 116.25 31.820312 116.265625 31.804688 116.265625 C 31.730469 116.277344 31.644531 116.292969 31.570312 116.308594 C 31.496094 116.324219 31.441406 116.335938 31.367188 116.351562 C 31.335938 116.367188 31.292969 116.367188 31.265625 116.378906 C 31.25 116.378906 31.21875 116.394531 31.207031 116.394531 C 31.132812 116.425781 31.046875 116.46875 30.972656 116.496094 C 30.898438 116.527344 30.839844 116.542969 30.769531 116.570312 C 30.753906 116.570312 30.738281 116.585938 30.738281 116.585938 C 30.722656 116.585938 30.710938 116.601562 30.695312 116.613281 C 30.664062 116.628906 30.652344 116.628906 30.621094 116.644531 C 30.578125 116.671875 30.535156 116.703125 30.476562 116.730469 C 30.445312 116.746094 30.402344 116.773438 30.375 116.789062 C 30.316406 116.832031 30.242188 116.863281 30.183594 116.921875 C 30.167969 116.933594 30.15625 116.933594 30.140625 116.949219 L 11.3125 100.019531 C 12.1875 98.632812 11.96875 96.792969 10.714844 95.65625 C 9.296875 94.398438 7.167969 94.5 5.882812 95.917969 C 4.625 97.332031 4.730469 99.464844 6.144531 100.75 C 7.414062 101.871094 9.253906 101.902344 10.550781 100.894531 L 29.394531 117.839844 C 29.382812 117.871094 29.351562 117.898438 29.335938 117.929688 C 29.335938 117.941406 29.335938 117.941406 29.324219 117.957031 C 29.324219 117.972656 29.308594 117.972656 29.308594 117.988281 C 29.292969 118 29.292969 118.03125 29.28125 118.042969 C 29.265625 118.074219 29.25 118.089844 29.234375 118.117188 C 29.191406 118.21875 29.164062 118.308594 29.117188 118.410156 C 29.089844 118.46875 29.058594 118.527344 29.046875 118.585938 C 29.03125 118.613281 29.03125 118.628906 29.03125 118.65625 C 28.988281 118.789062 28.957031 118.933594 28.945312 119.066406 C 28.929688 119.125 28.914062 119.183594 28.898438 119.242188 C 28.898438 119.257812 28.898438 119.257812 28.898438 119.269531 C 28.839844 119.695312 28.871094 120.117188 28.972656 120.511719 C 28.972656 120.527344 28.972656 120.539062 28.972656 120.539062 C 28.988281 120.597656 29.015625 120.644531 29.03125 120.703125 C 29.058594 120.789062 29.074219 120.863281 29.105469 120.933594 L 6.507812 134.875 C 5.429688 133.648438 3.589844 133.339844 2.144531 134.230469 C 0.539062 135.238281 0.0429688 137.3125 1.035156 138.929688 C 2.027344 140.539062 4.128906 141.035156 5.734375 140.039062 C 7.179688 139.136719 7.722656 137.382812 7.109375 135.851562 L 29.71875 121.914062 C 29.777344 121.972656 29.832031 122.042969 29.890625 122.101562 C 29.921875 122.132812 29.949219 122.175781 29.980469 122.203125 C 29.996094 122.21875 29.996094 122.21875 30.007812 122.234375 C 30.007812 122.234375 30.023438 122.234375 30.023438 122.25 C 30.066406 122.277344 30.109375 122.308594 30.140625 122.335938 C 30.167969 122.351562 30.183594 122.378906 30.214844 122.410156 L 4.933594 172.035156 C 3.355469 171.554688 1.664062 172.238281 0.875 173.742188 C 0.0273438 175.449219 0.6875 177.464844 2.363281 178.339844 C 4.070312 179.1875 6.085938 178.53125 6.960938 176.851562 C 7.722656 175.320312 7.269531 173.554688 5.953125 172.5625 L 31.234375 122.933594 C 31.308594 122.964844 31.382812 122.964844 31.46875 122.976562 C 31.554688 123.007812 31.660156 123.023438 31.746094 123.035156 C 31.773438 123.035156 31.789062 123.050781 31.820312 123.050781 C 31.820312 123.050781 31.820312 123.050781 31.832031 123.050781 C 31.921875 123.066406 31.996094 123.050781 32.066406 123.066406 C 32.15625 123.066406 32.242188 123.082031 32.34375 123.082031 C 32.386719 123.082031 32.417969 123.082031 32.460938 123.082031 C 32.503906 123.082031 32.5625 123.066406 32.605469 123.066406 C 32.621094 123.066406 32.652344 123.066406 32.664062 123.050781 C 32.710938 123.050781 32.753906 123.050781 32.796875 123.035156 L 90.507812 293.179688 C 90.480469 293.195312 90.449219 293.210938 90.421875 293.226562 C 90.394531 293.238281 90.363281 293.253906 90.335938 293.285156 C 90.261719 293.328125 90.1875 293.386719 90.117188 293.429688 C 90.085938 293.445312 90.070312 293.472656 90.042969 293.488281 C 90 293.515625 89.953125 293.5625 89.910156 293.589844 C 89.910156 293.589844 89.894531 293.589844 89.894531 293.605469 C 89.882812 293.621094 89.882812 293.621094 89.867188 293.632812 C 89.792969 293.707031 89.722656 293.765625 89.648438 293.839844 C 89.648438 293.851562 89.632812 293.851562 89.632812 293.867188 C 89.5625 293.941406 89.503906 294.011719 89.445312 294.101562 C 89.429688 294.117188 89.414062 294.144531 89.398438 294.160156 C 89.371094 294.203125 89.34375 294.246094 89.3125 294.289062 C 89.296875 294.304688 89.296875 294.320312 89.285156 294.335938 C 89.210938 294.453125 89.152344 294.554688 89.09375 294.671875 C 89.078125 294.699219 89.078125 294.714844 89.066406 294.742188 C 89.050781 294.757812 89.050781 294.773438 89.035156 294.800781 C 89.019531 294.832031 89.007812 294.859375 88.992188 294.890625 C 88.933594 295.019531 88.890625 295.167969 88.84375 295.3125 C 88.84375 295.328125 88.832031 295.339844 88.832031 295.355469 C 88.832031 295.355469 88.832031 295.371094 88.832031 295.371094 C 88.816406 295.398438 88.816406 295.445312 88.800781 295.472656 C 88.773438 295.632812 88.742188 295.792969 88.730469 295.953125 C 88.730469 295.96875 88.730469 295.984375 88.730469 295.984375 C 88.730469 296 88.730469 296.011719 88.730469 296.027344 C 88.730469 296.085938 88.730469 296.128906 88.730469 296.1875 C 88.730469 296.21875 88.730469 296.246094 88.730469 296.277344 C 88.730469 296.363281 88.742188 296.464844 88.742188 296.554688 C 88.742188 296.566406 88.742188 296.582031 88.742188 296.597656 C 88.742188 296.597656 88.742188 296.597656 88.742188 296.613281 C 88.742188 296.613281 88.742188 296.625 88.742188 296.625 C 88.757812 296.714844 88.773438 296.800781 88.789062 296.890625 C 88.789062 296.902344 88.789062 296.902344 88.789062 296.917969 C 88.789062 296.917969 88.789062 296.933594 88.789062 296.933594 C 88.816406 297.035156 88.832031 297.136719 88.859375 297.226562 C 88.859375 297.238281 88.875 297.253906 88.875 297.269531 C 88.902344 297.371094 88.949219 297.457031 88.992188 297.558594 C 88.992188 297.574219 89.007812 297.574219 89.007812 297.589844 C 89.050781 297.675781 89.078125 297.75 89.121094 297.835938 C 89.136719 297.867188 89.152344 297.882812 89.152344 297.910156 C 89.195312 297.984375 89.238281 298.042969 89.285156 298.113281 C 89.296875 298.144531 89.328125 298.171875 89.339844 298.203125 C 89.355469 298.21875 89.371094 298.246094 89.386719 298.261719 L 37.992188 352.734375 C 36.636719 351.828125 34.765625 352.003906 33.613281 353.230469 C 32.328125 354.601562 32.375 356.777344 33.761719 358.0625 C 35.132812 359.34375 37.308594 359.300781 38.589844 357.914062 C 39.746094 356.6875 39.816406 354.820312 38.839844 353.507812 L 90.230469 299.035156 C 90.261719 299.050781 90.289062 299.0625 90.304688 299.078125 C 90.347656 299.109375 90.394531 299.136719 90.449219 299.164062 C 90.496094 299.195312 90.539062 299.210938 90.582031 299.238281 C 90.597656 299.253906 90.625 299.253906 90.640625 299.269531 C 90.683594 299.28125 90.714844 299.296875 90.757812 299.3125 C 90.800781 299.328125 90.84375 299.355469 90.890625 299.371094 C 90.949219 299.398438 91.003906 299.414062 91.0625 299.429688 C 91.109375 299.441406 91.152344 299.457031 91.195312 299.472656 C 91.195312 299.472656 91.210938 299.472656 91.210938 299.472656 C 91.210938 299.472656 91.226562 299.472656 91.226562 299.472656 C 91.28125 299.488281 91.328125 299.5 91.386719 299.5 C 91.429688 299.515625 91.472656 299.515625 91.515625 299.53125 C 91.589844 299.546875 91.664062 299.546875 91.734375 299.558594 C 91.777344 299.558594 91.808594 299.574219 91.851562 299.574219 C 91.882812 299.574219 91.910156 299.589844 91.941406 299.589844 C 92 299.589844 92.042969 299.589844 92.085938 299.589844 C 92.113281 299.589844 92.144531 299.589844 92.171875 299.589844 C 92.261719 299.589844 92.363281 299.574219 92.449219 299.574219 C 92.464844 299.574219 92.480469 299.574219 92.507812 299.574219 C 92.539062 299.574219 92.582031 299.574219 92.609375 299.558594 L 110.066406 352.527344 C 108.621094 353.300781 107.894531 355.011719 108.417969 356.617188 C 109.015625 358.410156 110.945312 359.390625 112.738281 358.789062 C 114.535156 358.191406 115.511719 356.265625 114.914062 354.46875 C 114.386719 352.863281 112.78125 351.914062 111.164062 352.164062 L 93.707031 299.179688 C 93.71875 299.164062 93.734375 299.164062 93.75 299.152344 C 93.765625 299.136719 93.792969 299.136719 93.808594 299.121094 C 93.851562 299.09375 93.894531 299.0625 93.9375 299.035156 C 93.953125 299.019531 93.96875 299.019531 93.984375 299.003906 C 94.101562 298.933594 94.203125 298.84375 94.304688 298.773438 C 94.320312 298.757812 94.332031 298.757812 94.347656 298.742188 C 94.363281 298.726562 94.363281 298.726562 94.378906 298.714844 C 94.390625 298.699219 94.40625 298.683594 94.421875 298.667969 C 94.4375 298.65625 94.449219 298.640625 94.449219 298.640625 C 94.550781 298.554688 94.640625 298.449219 94.726562 298.347656 C 94.757812 298.320312 94.769531 298.289062 94.800781 298.261719 C 94.816406 298.246094 94.816406 298.246094 94.828125 298.230469 C 94.917969 298.113281 95.003906 297.984375 95.078125 297.835938 C 95.09375 297.808594 95.105469 297.78125 95.121094 297.765625 C 95.136719 297.75 95.136719 297.734375 95.152344 297.722656 C 95.222656 297.574219 95.28125 297.429688 95.339844 297.28125 C 95.339844 297.269531 95.355469 297.253906 95.355469 297.238281 C 95.355469 297.226562 95.371094 297.195312 95.371094 297.179688 C 95.429688 297.007812 95.457031 296.832031 95.488281 296.65625 C 95.488281 296.640625 95.488281 296.625 95.488281 296.625 C 95.5 296.539062 95.515625 296.453125 95.515625 296.363281 C 95.515625 296.320312 95.515625 296.277344 95.515625 296.21875 C 95.515625 296.175781 95.515625 296.128906 95.515625 296.070312 C 95.515625 296.058594 95.515625 296.042969 95.515625 296.027344 L 243.839844 263.785156 C 243.839844 263.800781 243.855469 263.816406 243.855469 263.816406 C 243.925781 263.988281 244.015625 264.164062 244.132812 264.339844 C 244.144531 264.355469 244.160156 264.382812 244.160156 264.398438 C 244.277344 264.574219 244.394531 264.71875 244.539062 264.867188 C 244.554688 264.878906 244.570312 264.894531 244.585938 264.910156 C 244.628906 264.953125 244.671875 264.996094 244.714844 265.027344 L 222.980469 299.253906 C 221.480469 298.625 219.683594 299.152344 218.777344 300.582031 C 217.773438 302.171875 218.238281 304.304688 219.828125 305.296875 C 221.421875 306.304688 223.535156 305.835938 224.542969 304.246094 C 225.449219 302.828125 225.15625 300.976562 223.945312 299.882812 L 245.679688 265.652344 C 245.679688 265.652344 245.695312 265.652344 245.695312 265.652344 C 245.695312 265.652344 245.707031 265.652344 245.707031 265.652344 C 245.914062 265.742188 246.117188 265.800781 246.335938 265.84375 C 246.335938 265.84375 246.351562 265.84375 246.351562 265.84375 C 246.554688 265.886719 246.757812 265.902344 246.964844 265.902344 C 246.976562 265.902344 247.007812 265.902344 247.023438 265.902344 C 247.152344 265.902344 247.300781 265.886719 247.429688 265.871094 C 247.488281 265.859375 247.53125 265.859375 247.589844 265.84375 C 247.621094 265.84375 247.648438 265.828125 247.679688 265.828125 C 247.867188 265.785156 248.042969 265.742188 248.21875 265.667969 C 248.246094 265.652344 248.277344 265.640625 248.304688 265.625 C 248.378906 265.59375 248.453125 265.566406 248.511719 265.523438 L 291.757812 323.980469 C 290.632812 325.160156 290.472656 327.015625 291.480469 328.371094 C 292.605469 329.890625 294.75 330.210938 296.269531 329.085938 C 297.785156 327.964844 298.109375 325.816406 296.984375 324.300781 C 295.976562 322.941406 294.152344 322.546875 292.691406 323.277344 L 249.445312 264.820312 C 249.5625 264.691406 249.679688 264.558594 249.78125 264.414062 C 249.796875 264.398438 249.808594 264.382812 249.808594 264.371094 C 249.824219 264.355469 249.824219 264.339844 249.824219 264.324219 C 249.882812 264.253906 249.925781 264.164062 249.96875 264.078125 L 304.3125 282.394531 C 304.0625 284.015625 304.996094 285.621094 306.601562 286.160156 C 308.398438 286.757812 310.324219 285.796875 310.9375 284.015625 C 311.535156 282.21875 310.574219 280.292969 308.792969 279.679688 C 307.1875 279.140625 305.464844 279.855469 304.691406 281.300781 L 250.351562 262.984375 C 250.363281 262.878906 250.378906 262.777344 250.378906 262.675781 C 250.378906 262.648438 250.378906 262.632812 250.378906 262.601562 C 250.394531 262.441406 250.378906 262.265625 250.363281 262.105469 C 250.363281 262.09375 250.363281 262.0625 250.363281 262.046875 C 250.363281 262.035156 250.363281 262.019531 250.363281 262.003906 C 250.351562 261.933594 250.335938 261.859375 250.320312 261.785156 C 250.292969 261.667969 250.277344 261.550781 250.246094 261.4375 C 250.21875 261.347656 250.175781 261.261719 250.144531 261.171875 C 250.101562 261.070312 250.074219 260.984375 250.027344 260.882812 C 249.984375 260.777344 249.910156 260.691406 249.851562 260.605469 C 249.808594 260.53125 249.765625 260.457031 249.707031 260.382812 C 249.632812 260.28125 249.546875 260.195312 249.460938 260.105469 C 249.414062 260.0625 249.386719 260.003906 249.328125 259.960938 L 321.140625 153.292969 C 321.15625 153.292969 321.167969 153.308594 321.183594 153.308594 C 321.328125 153.367188 321.476562 153.425781 321.621094 153.46875 C 321.679688 153.484375 321.738281 153.5 321.8125 153.511719 C 321.941406 153.542969 322.058594 153.558594 322.191406 153.570312 C 322.234375 153.570312 322.292969 153.585938 322.335938 153.585938 C 322.511719 153.601562 322.671875 153.585938 322.847656 153.570312 C 322.878906 153.570312 322.890625 153.570312 322.921875 153.570312 C 322.992188 153.558594 323.050781 153.558594 323.125 153.542969 C 323.15625 153.542969 323.167969 153.527344 323.199219 153.527344 C 323.476562 153.46875 323.722656 153.394531 323.972656 153.28125 C 324 153.265625 324.015625 153.25 324.03125 153.25 C 324.132812 153.207031 324.21875 153.148438 324.308594 153.089844 C 324.320312 153.074219 324.351562 153.074219 324.367188 153.0625 C 324.378906 153.0625 324.378906 153.046875 324.394531 153.03125 C 324.554688 152.929688 324.714844 152.796875 324.863281 152.667969 C 324.890625 152.636719 324.921875 152.609375 324.949219 152.59375 C 325.082031 152.460938 325.199219 152.316406 325.316406 152.171875 C 325.328125 152.140625 325.359375 152.113281 325.371094 152.082031 C 325.445312 151.964844 325.519531 151.847656 325.578125 151.730469 L 372.386719 166.429688 C 372.167969 168.066406 373.117188 169.628906 374.75 170.152344 C 376.5625 170.707031 378.457031 169.730469 379.042969 167.917969 C 379.667969 166.195312 378.691406 164.300781 376.882812 163.730469 Z M 319.199219 150.066406 L 236.949219 159.308594 C 236.5 157.730469 234.964844 156.679688 233.285156 156.855469 C 232.46875 156.941406 231.753906 157.324219 231.230469 157.863281 L 152.175781 103.113281 L 319.226562 149.90625 C 319.226562 149.921875 319.226562 149.953125 319.226562 149.964844 C 319.214844 149.996094 319.199219 150.039062 319.199219 150.066406 Z M 245.839844 259.320312 C 245.824219 259.332031 245.796875 259.332031 245.78125 259.347656 L 151.242188 104.207031 C 151.273438 104.179688 151.300781 104.148438 151.332031 104.121094 C 151.332031 104.121094 151.34375 104.105469 151.34375 104.105469 C 151.34375 104.105469 151.34375 104.105469 151.359375 104.089844 C 151.390625 104.0625 151.417969 104.046875 151.449219 104.019531 L 230.570312 158.8125 C 230.308594 159.367188 230.191406 159.980469 230.265625 160.636719 C 230.457031 162.328125 231.871094 163.597656 233.519531 163.671875 L 246.015625 259.261719 C 245.957031 259.273438 245.914062 259.304688 245.839844 259.320312 Z M 164.378906 236.023438 C 164.234375 234.34375 162.875 233.046875 161.257812 232.914062 L 149.886719 104.921875 C 149.886719 104.921875 149.898438 104.921875 149.898438 104.921875 C 149.914062 104.921875 149.929688 104.910156 149.957031 104.910156 C 149.988281 104.894531 150.015625 104.894531 150.0625 104.878906 C 150.0625 104.878906 150.0625 104.878906 150.074219 104.878906 C 150.089844 104.878906 150.105469 104.863281 150.121094 104.863281 C 150.148438 104.851562 150.175781 104.851562 150.207031 104.835938 C 150.207031 104.835938 150.207031 104.835938 150.222656 104.835938 C 150.25 104.820312 150.265625 104.820312 150.292969 104.804688 L 244.832031 259.960938 C 244.816406 259.976562 244.804688 259.976562 244.804688 259.992188 C 244.746094 260.046875 244.671875 260.105469 244.613281 260.164062 C 244.527344 260.253906 244.46875 260.339844 244.394531 260.441406 C 244.351562 260.5 244.292969 260.558594 244.25 260.617188 C 244.25 260.632812 244.234375 260.632812 244.234375 260.648438 C 244.160156 260.765625 244.101562 260.878906 244.042969 260.996094 L 164.421875 236.769531 C 164.410156 236.503906 164.410156 236.273438 164.378906 236.023438 Z M 158.058594 238.097656 L 94.304688 293.546875 C 94.289062 293.53125 94.273438 293.53125 94.261719 293.515625 C 94.21875 293.488281 94.1875 293.457031 94.144531 293.445312 C 94.128906 293.429688 94.113281 293.429688 94.113281 293.414062 C 94.054688 293.371094 93.996094 293.328125 93.925781 293.285156 C 93.867188 293.253906 93.824219 293.210938 93.765625 293.179688 C 93.71875 293.167969 93.675781 293.152344 93.648438 293.125 L 148.628906 105.011719 C 148.675781 105.011719 148.703125 105.023438 148.746094 105.023438 L 160.117188 233.015625 C 158.542969 233.441406 157.433594 234.945312 157.59375 236.621094 C 157.621094 237.164062 157.796875 237.660156 158.058594 238.097656 Z M 35.511719 120.613281 C 35.527344 120.554688 35.554688 120.480469 35.570312 120.425781 C 35.585938 120.378906 35.585938 120.335938 35.597656 120.292969 C 35.597656 120.261719 35.613281 120.234375 35.628906 120.203125 C 35.644531 120.132812 35.644531 120.058594 35.65625 119.984375 C 35.671875 119.925781 35.6875 119.855469 35.6875 119.796875 C 35.6875 119.765625 35.6875 119.738281 35.6875 119.707031 C 35.6875 119.695312 35.6875 119.664062 35.6875 119.648438 L 145.769531 102.71875 C 145.769531 102.71875 145.769531 102.734375 145.785156 102.734375 C 145.785156 102.734375 145.785156 102.75 145.785156 102.75 C 145.785156 102.761719 145.800781 102.777344 145.800781 102.792969 C 145.800781 102.804688 145.8125 102.804688 145.8125 102.820312 C 145.8125 102.835938 145.828125 102.851562 145.828125 102.863281 C 145.828125 102.878906 145.84375 102.894531 145.84375 102.910156 C 145.886719 103.027344 145.945312 103.140625 146.003906 103.257812 C 146.019531 103.273438 146.019531 103.289062 146.019531 103.304688 C 146.03125 103.347656 146.0625 103.375 146.089844 103.417969 C 146.089844 103.433594 146.105469 103.433594 146.105469 103.449219 C 146.105469 103.449219 146.121094 103.464844 146.121094 103.464844 C 146.121094 103.476562 146.132812 103.476562 146.148438 103.492188 C 146.164062 103.523438 146.179688 103.535156 146.191406 103.566406 C 146.222656 103.625 146.265625 103.667969 146.308594 103.710938 C 146.324219 103.726562 146.324219 103.742188 146.339844 103.742188 C 146.351562 103.753906 146.351562 103.753906 146.351562 103.769531 L 100.753906 155.832031 C 100.742188 155.820312 100.726562 155.804688 100.710938 155.804688 C 99.238281 154.957031 97.429688 155.292969 96.363281 156.550781 L 35.46875 120.789062 C 35.484375 120.730469 35.496094 120.671875 35.511719 120.613281 Z M 109.542969 36.644531 C 109.558594 36.628906 109.570312 36.613281 109.585938 36.613281 C 109.601562 36.597656 109.617188 36.585938 109.628906 36.570312 C 109.675781 36.527344 109.703125 36.46875 109.746094 36.425781 C 109.804688 36.351562 109.863281 36.261719 109.921875 36.191406 C 109.953125 36.160156 109.980469 36.132812 109.996094 36.089844 L 162.976562 57.75 C 162.875 58.214844 162.863281 58.726562 162.976562 59.222656 C 163.183594 60.15625 163.765625 60.929688 164.527344 61.398438 L 149.726562 98.296875 C 149.726562 98.296875 149.710938 98.296875 149.710938 98.296875 C 149.679688 98.296875 149.667969 98.296875 149.636719 98.28125 C 149.59375 98.265625 149.550781 98.265625 149.507812 98.253906 C 149.492188 98.253906 149.476562 98.253906 149.460938 98.238281 C 149.417969 98.238281 149.390625 98.238281 149.347656 98.222656 C 149.289062 98.222656 149.230469 98.207031 149.171875 98.207031 C 149.140625 98.207031 149.113281 98.207031 149.082031 98.207031 C 149.054688 98.207031 149.039062 98.207031 149.011719 98.207031 C 148.980469 98.207031 148.9375 98.207031 148.90625 98.207031 C 148.878906 98.207031 148.863281 98.207031 148.835938 98.207031 C 148.792969 98.207031 148.734375 98.207031 148.6875 98.222656 C 148.660156 98.222656 148.617188 98.222656 148.585938 98.222656 C 148.570312 98.222656 148.542969 98.238281 148.527344 98.238281 C 148.515625 98.238281 148.515625 98.238281 148.5 98.238281 C 148.46875 98.238281 148.441406 98.253906 148.410156 98.253906 C 148.398438 98.253906 148.398438 98.253906 148.382812 98.253906 C 148.367188 98.253906 148.351562 98.253906 148.339844 98.265625 C 148.28125 98.28125 148.207031 98.296875 148.148438 98.3125 C 148.132812 98.3125 148.121094 98.324219 148.105469 98.324219 C 148.003906 98.355469 147.914062 98.382812 147.8125 98.414062 C 147.796875 98.414062 147.785156 98.429688 147.769531 98.429688 C 147.753906 98.429688 147.738281 98.441406 147.726562 98.441406 C 147.726562 98.441406 147.726562 98.441406 147.710938 98.441406 C 147.710938 98.441406 147.695312 98.441406 147.695312 98.441406 L 109.339844 36.804688 C 109.425781 36.761719 109.484375 36.703125 109.542969 36.644531 Z M 151.59375 99.390625 C 151.578125 99.375 151.5625 99.347656 151.550781 99.332031 C 151.535156 99.316406 151.519531 99.304688 151.507812 99.289062 C 151.492188 99.273438 151.476562 99.261719 151.460938 99.246094 C 151.449219 99.230469 151.417969 99.203125 151.402344 99.1875 C 151.390625 99.171875 151.375 99.15625 151.359375 99.144531 C 151.34375 99.128906 151.316406 99.113281 151.300781 99.085938 C 151.285156 99.070312 151.285156 99.070312 151.273438 99.054688 C 151.273438 99.054688 151.273438 99.054688 151.257812 99.039062 C 151.242188 99.027344 151.242188 99.027344 151.230469 99.027344 C 151.183594 98.996094 151.15625 98.96875 151.113281 98.925781 C 151.097656 98.910156 151.082031 98.894531 151.066406 98.894531 C 151.039062 98.867188 151.007812 98.851562 150.964844 98.820312 C 150.953125 98.808594 150.953125 98.808594 150.9375 98.792969 C 150.921875 98.777344 150.90625 98.777344 150.90625 98.777344 C 150.894531 98.761719 150.878906 98.761719 150.863281 98.75 C 150.847656 98.734375 150.820312 98.71875 150.804688 98.707031 C 150.789062 98.707031 150.789062 98.691406 150.789062 98.691406 L 165.589844 61.792969 C 166.058594 61.894531 166.554688 61.894531 167.050781 61.792969 C 168.699219 61.425781 169.808594 59.921875 169.734375 58.289062 L 248.933594 40.816406 Z M 99.382812 162.140625 C 100.40625 162.023438 101.355469 161.453125 101.921875 160.488281 C 102.667969 159.207031 102.492188 157.6875 101.617188 156.621094 L 147.214844 104.542969 C 147.214844 104.542969 147.214844 104.542969 147.230469 104.542969 C 147.230469 104.542969 147.242188 104.542969 147.242188 104.558594 C 147.273438 104.574219 147.289062 104.585938 147.316406 104.601562 C 147.375 104.632812 147.449219 104.675781 147.507812 104.703125 L 92.960938 291.328125 Z M 169.488281 57.179688 C 168.875 55.660156 167.226562 54.769531 165.589844 55.136719 C 164.65625 55.339844 163.898438 55.910156 163.429688 56.667969 L 110.449219 35.007812 C 110.449219 34.992188 110.449219 34.992188 110.449219 34.980469 C 110.449219 34.980469 110.449219 34.964844 110.449219 34.964844 L 247.707031 39.914062 Z M 107.339844 37.679688 C 107.382812 37.679688 107.410156 37.664062 107.457031 37.664062 C 107.570312 37.648438 107.6875 37.636719 107.792969 37.605469 C 107.878906 37.59375 107.953125 37.578125 108.039062 37.546875 C 108.082031 37.535156 108.140625 37.535156 108.183594 37.519531 C 108.242188 37.503906 108.300781 37.460938 108.375 37.445312 C 108.390625 37.445312 108.390625 37.445312 108.402344 37.429688 L 146.761719 99.070312 C 146.761719 99.070312 146.761719 99.070312 146.746094 99.085938 C 146.734375 99.097656 146.71875 99.113281 146.703125 99.128906 C 146.675781 99.15625 146.660156 99.171875 146.632812 99.203125 C 146.601562 99.230469 146.558594 99.261719 146.527344 99.304688 C 146.515625 99.332031 146.484375 99.347656 146.46875 99.375 C 146.46875 99.375 146.457031 99.390625 146.457031 99.390625 C 146.441406 99.40625 146.441406 99.421875 146.425781 99.421875 C 146.410156 99.449219 146.382812 99.464844 146.367188 99.492188 C 146.324219 99.550781 146.28125 99.59375 146.25 99.652344 C 146.238281 99.667969 146.222656 99.683594 146.207031 99.699219 C 146.191406 99.710938 146.191406 99.726562 146.179688 99.742188 C 146.164062 99.757812 146.148438 99.769531 146.148438 99.785156 C 146.132812 99.8125 146.105469 99.84375 146.089844 99.886719 C 146.089844 99.902344 146.078125 99.917969 146.078125 99.917969 C 146.0625 99.929688 146.0625 99.945312 146.046875 99.960938 L 105.355469 85.292969 C 105.644531 83.6875 104.742188 82.050781 103.148438 81.480469 C 103.078125 81.453125 102.988281 81.4375 102.902344 81.410156 Z M 100.800781 87.890625 C 102.390625 88.457031 104.128906 87.789062 104.929688 86.355469 L 145.625 101.027344 C 145.625 101.054688 145.625 101.085938 145.609375 101.097656 C 145.609375 101.113281 145.609375 101.128906 145.609375 101.128906 C 145.59375 101.273438 145.578125 101.40625 145.578125 101.550781 L 35.820312 118.4375 L 99.207031 86.691406 C 99.601562 87.21875 100.144531 87.640625 100.800781 87.890625 Z M 34.023438 122.511719 C 34.082031 122.480469 34.140625 122.4375 34.199219 122.394531 C 34.269531 122.351562 34.328125 122.308594 34.386719 122.25 C 34.433594 122.21875 34.460938 122.191406 34.503906 122.144531 C 34.546875 122.101562 34.59375 122.058594 34.652344 122.015625 C 34.710938 121.957031 34.765625 121.914062 34.8125 121.855469 C 34.824219 121.839844 34.824219 121.839844 34.839844 121.824219 C 34.855469 121.808594 34.855469 121.796875 34.871094 121.796875 C 34.871094 121.796875 34.882812 121.78125 34.882812 121.78125 L 95.777344 157.542969 C 95.195312 159.074219 95.777344 160.824219 97.238281 161.703125 C 97.558594 161.890625 97.878906 161.992188 98.230469 162.066406 L 91.722656 292.789062 C 91.675781 292.789062 91.648438 292.800781 91.605469 292.816406 L 33.890625 122.585938 C 33.9375 122.554688 33.980469 122.527344 34.023438 122.511719 Z M 105.324219 37.183594 C 105.339844 37.199219 105.355469 37.199219 105.367188 37.199219 C 105.457031 37.257812 105.558594 37.316406 105.660156 37.359375 C 105.6875 37.371094 105.71875 37.371094 105.734375 37.386719 C 105.761719 37.402344 105.792969 37.417969 105.820312 37.429688 C 105.878906 37.460938 105.953125 37.476562 106.011719 37.488281 C 106.070312 37.503906 106.128906 37.546875 106.199219 37.5625 L 101.75 81.261719 C 100.433594 81.351562 99.238281 82.195312 98.769531 83.511719 C 98.507812 84.226562 98.507812 84.984375 98.726562 85.65625 L 35.042969 117.546875 C 35.03125 117.519531 35 117.503906 34.988281 117.488281 C 34.972656 117.476562 34.957031 117.445312 34.941406 117.433594 Z M 95.296875 294.902344 C 95.28125 294.859375 95.253906 294.832031 95.238281 294.785156 C 95.195312 294.683594 95.152344 294.597656 95.09375 294.507812 C 95.078125 294.480469 95.0625 294.453125 95.046875 294.40625 L 158.804688 238.957031 C 159.476562 239.496094 160.335938 239.804688 161.269531 239.714844 C 162.496094 239.613281 163.503906 238.871094 164.027344 237.847656 L 243.648438 262.078125 C 243.636719 262.195312 243.621094 262.296875 243.621094 262.414062 C 243.621094 262.484375 243.621094 262.574219 243.621094 262.648438 Z M 248.4375 259.390625 C 248.421875 259.390625 248.410156 259.378906 248.394531 259.378906 C 248.277344 259.320312 248.144531 259.289062 248.015625 259.246094 C 247.957031 259.230469 247.882812 259.203125 247.824219 259.1875 C 247.722656 259.160156 247.605469 259.144531 247.488281 259.128906 C 247.402344 259.113281 247.3125 259.101562 247.226562 259.101562 C 247.210938 259.101562 247.195312 259.101562 247.167969 259.101562 L 234.671875 163.527344 C 236.03125 163.101562 236.996094 161.875 237.082031 160.460938 L 319.328125 151.222656 C 319.34375 151.28125 319.375 151.324219 319.386719 151.382812 C 319.417969 151.484375 319.460938 151.585938 319.503906 151.6875 C 319.550781 151.777344 319.59375 151.847656 319.636719 151.9375 C 319.664062 151.996094 319.695312 152.054688 319.722656 152.113281 C 319.753906 152.15625 319.78125 152.199219 319.8125 152.242188 C 319.839844 152.285156 319.871094 152.316406 319.882812 152.34375 C 319.988281 152.492188 320.105469 152.621094 320.234375 152.738281 Z M 248.4375 259.390625 " fill-opacity="1" fill-rule="nonzero"/><path stroke-linecap="butt" transform="matrix(-0.215927, 0.718245, -0.718245, -0.215927, 150.641786, 101.059709)" fill="none" stroke-linejoin="miter" d="M 0.0021244 4.498704 L 272.400988 4.501573 " stroke="#ff3131" stroke-width="9" stroke-opacity="1" stroke-miterlimit="4"/><path stroke-linecap="butt" transform="matrix(0.0660054, 0.74709, -0.74709, 0.0660054, 150.775132, 99.788672)" fill="none" stroke-linejoin="miter" d="M 0.000418494 4.49892 L 180.894743 4.502269 " stroke="#ff3131" stroke-width="9" stroke-opacity="1" stroke-miterlimit="4"/><path stroke-linecap="butt" transform="matrix(0.23015, 0.713814, -0.713814, 0.23015, 34.907108, 118.236628)" fill="none" stroke-linejoin="miter" d="M 0.00158941 4.499996 L 247.216411 4.497318 " stroke="#ff3131" stroke-width="9" stroke-opacity="1" stroke-miterlimit="4"/><path stroke-linecap="butt" transform="matrix(0.41568, -0.624267, 0.624267, 0.41568, 216.13751, 297.225127)" fill="none" stroke-linejoin="miter" d="M 0.00111558 4.497012 L 61.744746 4.500788 " stroke="#ff3131" stroke-width="9" stroke-opacity="1" stroke-miterlimit="4"/><path stroke-linecap="butt" transform="matrix(-0.0455277, 0.748617, -0.748617, -0.0455277, 101.235519, 157.328003)" fill="none" stroke-linejoin="miter" d="M 0.00245464 4.499257 L 183.298727 4.497509 " stroke="#ff3131" stroke-width="9" stroke-opacity="1" stroke-miterlimit="4"/><path stroke-linecap="butt" transform="matrix(0.0945839, 0.744012, -0.744012, 0.0945839, 234.81374, 156.697226)" fill="none" stroke-linejoin="miter" d="M -0.00246922 4.500819 L 139.018818 4.501818 " stroke="#ff3131" stroke-width="9" stroke-opacity="1" stroke-miterlimit="4"/><path stroke-linecap="butt" transform="matrix(0.548005, 0.512046, -0.512046, 0.548005, 11.487782, 95.765831)" fill="none" stroke-linejoin="miter" d="M -0.00124126 4.498637 L 41.086103 4.499479 " stroke="#ff3131" stroke-width="9" stroke-opacity="1" stroke-miterlimit="4"/><path stroke-linecap="butt" transform="matrix(0.715143, 0.225986, -0.225986, 0.715143, 245.632385, 257.335414)" fill="none" stroke-linejoin="miter" d="M 0.00266739 4.500735 L 86.878806 4.500708 " stroke="#ff3131" stroke-width="9" stroke-opacity="1" stroke-miterlimit="4"/><path stroke-linecap="butt" transform="matrix(0.423336, -0.619101, 0.619101, 0.423336, 241.82779, 258.644808)" fill="none" stroke-linejoin="miter" d="M -0.00140705 4.500211 L 180.71624 4.499543 " stroke="#ff3131" stroke-width="9" stroke-opacity="1" stroke-miterlimit="4"/><path stroke-linecap="butt" transform="matrix(-0.522869, -0.537687, 0.537687, -0.522869, 266.765349, 288.811738)" fill="none" stroke-linejoin="miter" d="M 0.00296823 4.50038 L 1.325239 4.500322 " stroke="#ff3131" stroke-width="9" stroke-opacity="1" stroke-miterlimit="4"/><path stroke-linecap="butt" transform="matrix(-0.635869, 0.397706, -0.397706, -0.635869, 33.486634, 122.129186)" fill="none" stroke-linejoin="miter" d="M 0.00309938 4.499176 L 41.829957 4.502317 " stroke="#ff3131" stroke-width="9" stroke-opacity="1" stroke-miterlimit="4"/><path stroke-linecap="butt" transform="matrix(-0.322542, 0.677101, -0.677101, -0.322542, 36.183067, 123.127931)" fill="none" stroke-linejoin="miter" d="M -0.00120308 4.499675 L 73.907296 4.501493 " stroke="#ff3131" stroke-width="9" stroke-opacity="1" stroke-miterlimit="4"/><path stroke-linecap="butt" transform="matrix(0.620602, 0.421133, -0.421133, 0.620602, 149.308178, 97.295266)" fill="none" stroke-linejoin="miter" d="M 0.00248329 4.501325 L 135.436233 4.500573 " stroke="#ff3131" stroke-width="9" stroke-opacity="1" stroke-miterlimit="4"/><path stroke-linecap="butt" transform="matrix(0.747234, -0.0643558, 0.0643558, 0.747234, 231.177001, 153.759232)" fill="none" stroke-linejoin="miter" d="M -0.00225715 4.498882 L 116.876486 4.501949 " stroke="#ff3131" stroke-width="9" stroke-opacity="1" stroke-miterlimit="4"/><path stroke-linecap="butt" transform="matrix(0.388574, 0.641491, -0.641491, 0.388574, 150.299219, 98.338947)" fill="none" stroke-linejoin="miter" d="M -0.000743959 4.497131 L 250.147347 4.499915 " stroke="#ff3131" stroke-width="9" stroke-opacity="1" stroke-miterlimit="4"/><path stroke-linecap="butt" transform="matrix(0.451138, 0.599145, -0.599145, 0.451138, 247.310379, 258.525597)" fill="none" stroke-linejoin="miter" d="M -0.0018581 4.500181 L 104.21084 4.498013 " stroke="#ff3131" stroke-width="9" stroke-opacity="1" stroke-miterlimit="4"/><path stroke-linecap="butt" transform="matrix(0.73163, -0.164977, 0.164977, 0.73163, 87.853096, 292.440802)" fill="none" stroke-linejoin="miter" d="M -0.00262744 4.5011 L 213.252375 4.499079 " stroke="#ff3131" stroke-width="9" stroke-opacity="1" stroke-miterlimit="4"/><path stroke-linecap="butt" transform="matrix(-0.718955, -0.213549, 0.213549, -0.718955, 243.645164, 263.787112)" fill="none" stroke-linejoin="miter" d="M 0.00124518 4.501067 L 118.59207 4.499974 " stroke="#ff3131" stroke-width="9" stroke-opacity="1" stroke-miterlimit="4"/><path stroke-linecap="butt" transform="matrix(0.574607, -0.482003, 0.482003, 0.574607, 87.817249, 290.829883)" fill="none" stroke-linejoin="miter" d="M -0.000596237 4.496797 L 120.724138 4.500535 " stroke="#ff3131" stroke-width="9" stroke-opacity="1" stroke-miterlimit="4"/><path stroke-linecap="butt" transform="matrix(0.273114, 0.698505, -0.698505, 0.273114, 91.736768, 294.508545)" fill="none" stroke-linejoin="miter" d="M 0.00101825 4.500037 L 77.242927 4.497482 " stroke="#ff3131" stroke-width="9" stroke-opacity="1" stroke-miterlimit="4"/><path stroke-linecap="butt" transform="matrix(0.515705, -0.544562, 0.544562, 0.515705, 35.049344, 347.368278)" fill="none" stroke-linejoin="miter" d="M 0.00151831 4.498791 L 99.077354 4.498516 " stroke="#ff3131" stroke-width="9" stroke-opacity="1" stroke-miterlimit="4"/><path stroke-linecap="butt" transform="matrix(0.491843, -0.566207, 0.566207, 0.491843, 95.320076, 154.908256)" fill="none" stroke-linejoin="miter" d="M -0.000258773 4.498776 L 100.73396 4.501365 " stroke="#ff3131" stroke-width="9" stroke-opacity="1" stroke-miterlimit="4"/><path stroke-linecap="butt" transform="matrix(0.657832, 0.360218, -0.360218, 0.657832, 34.757328, 118.71766)" fill="none" stroke-linejoin="miter" d="M 0.0015755 4.501847 L 98.401257 4.501851 " stroke="#ff3131" stroke-width="9" stroke-opacity="1" stroke-miterlimit="4"/><path stroke-linecap="butt" transform="matrix(0.290645, -0.691394, 0.691394, 0.290645, 144.30108, 98.774283)" fill="none" stroke-linejoin="miter" d="M 0.00107459 4.502023 L 60.430863 4.500396 " stroke="#ff3131" stroke-width="9" stroke-opacity="1" stroke-miterlimit="4"/><path stroke-linecap="butt" transform="matrix(0.728645, -0.177699, 0.177699, 0.728645, 164.177763, 55.024187)" fill="none" stroke-linejoin="miter" d="M -0.00160065 4.501805 L 117.076853 4.501827 " stroke="#ff3131" stroke-width="9" stroke-opacity="1" stroke-miterlimit="4"/><path stroke-linecap="butt" transform="matrix(0.712564, 0.233992, -0.233992, 0.712564, 98.921079, 80.608399)" fill="none" stroke-linejoin="miter" d="M -0.000562718 4.502246 L 69.532365 4.501365 " stroke="#ff3131" stroke-width="9" stroke-opacity="1" stroke-miterlimit="4"/><path stroke-linecap="butt" transform="matrix(0.739652, -0.124158, 0.124158, 0.739652, 32.578109, 115.93878)" fill="none" stroke-linejoin="miter" d="M 0.000219155 4.49789 L 154.501129 4.50166 " stroke="#ff3131" stroke-width="9" stroke-opacity="1" stroke-miterlimit="4"/><path stroke-linecap="butt" transform="matrix(0.661091, -0.354201, 0.354201, 0.661091, 30.104087, 116.290056)" fill="none" stroke-linejoin="miter" d="M 0.0010286 4.501547 L 100.090981 4.499765 " stroke="#ff3131" stroke-width="9" stroke-opacity="1" stroke-miterlimit="4"/><path stroke-linecap="butt" transform="matrix(-0.721687, -0.204128, 0.204128, -0.721687, 370.709923, 167.921941)" fill="none" stroke-linejoin="miter" d="M -0.00104001 4.498313 L 73.850551 4.502362 " stroke="#ff3131" stroke-width="9" stroke-opacity="1" stroke-miterlimit="4"/><path stroke-linecap="butt" transform="matrix(0.095529, -0.743891, 0.743891, 0.095529, 95.533688, 81.983851)" fill="none" stroke-linejoin="miter" d="M -0.000164109 4.502191 L 59.757135 4.500143 " stroke="#ff3131" stroke-width="9" stroke-opacity="1" stroke-miterlimit="4"/><path stroke-linecap="butt" transform="matrix(0.218391, -0.717499, 0.717499, 0.218391, 100.898011, 36.515015)" fill="none" stroke-linejoin="miter" d="M 0.00146315 4.497104 L 27.583611 4.502179 " stroke="#ff3131" stroke-width="9" stroke-opacity="1" stroke-miterlimit="4"/><path stroke-linecap="butt" transform="matrix(-0.695618, -0.280384, 0.280384, -0.695618, 102.863194, 40.629602)" fill="none" stroke-linejoin="miter" d="M -0.00043326 4.499198 L 77.392242 4.498511 " stroke="#ff3131" stroke-width="9" stroke-opacity="1" stroke-miterlimit="4"/><path stroke-linecap="butt" transform="matrix(-0.483526, 0.573326, -0.573326, -0.483526, 106.703369, 39.678183)" fill="none" stroke-linejoin="miter" d="M 0.000247188 4.497005 L 146.821105 4.497852 " stroke="#ff3131" stroke-width="9" stroke-opacity="1" stroke-miterlimit="4"/><path stroke-linecap="butt" transform="matrix(-0.414003, -0.625381, 0.625381, -0.414003, 144.592802, 101.943999)" fill="none" stroke-linejoin="miter" d="M -0.000596877 4.498378 L 100.074212 4.500878 " stroke="#ff3131" stroke-width="9" stroke-opacity="1" stroke-miterlimit="4"/><path stroke-linecap="butt" transform="matrix(-0.709668, -0.242635, 0.242635, -0.709668, 163.879271, 61.496737)" fill="none" stroke-linejoin="miter" d="M -0.00255521 4.498823 L 85.743827 4.498271 " stroke="#ff3131" stroke-width="9" stroke-opacity="1" stroke-miterlimit="4"/><path stroke-linecap="butt" transform="matrix(-0.749996, -0.00238665, 0.00238665, -0.749996, 250.268045, 40.874971)" fill="none" stroke-linejoin="miter" d="M 0.00192132 4.499978 L 194.258124 4.501608 " stroke="#ff3131" stroke-width="9" stroke-opacity="1" stroke-miterlimit="4"/><path stroke-linecap="butt" transform="matrix(0.743121, -0.101349, 0.101349, 0.743121, 249.828415, 34.155752)" fill="none" stroke-linejoin="miter" d="M 0.000846491 4.500392 L 60.004483 4.49945 " stroke="#ff3131" stroke-width="9" stroke-opacity="1" stroke-miterlimit="4"/><path stroke-linecap="butt" transform="matrix(-0.0699847, 0.746728, -0.746728, -0.0699847, 256.884744, 3.192159)" fill="none" stroke-linejoin="miter" d="M 0.00235682 4.501161 L 46.371464 4.502456 " stroke="#ff3131" stroke-width="9" stroke-opacity="1" stroke-miterlimit="4"/><g clip-path="url(#054b33e3ce)"><g clip-path="url(#d82cae32c8)"><path fill="#ff3131" d="M 17.875 106.414062 L 48.398438 106.414062 L 48.398438 136.9375 L 17.875 136.9375 Z M 17.875 106.414062 " fill-opacity="1" fill-rule="nonzero"/></g></g><g clip-path="url(#4c95216ccd)"><g clip-path="url(#353833ade7)"><path fill="#ff3131" d="M 82.609375 141.863281 L 113.128906 141.863281 L 113.128906 172.382812 L 82.609375 172.382812 Z M 82.609375 141.863281 " fill-opacity="1" fill-rule="nonzero"/></g></g><g clip-path="url(#4c72ae6c07)"><g clip-path="url(#eed92e72d4)"><path fill="#ff3131" d="M 74.261719 279.082031 L 104.78125 279.082031 L 104.78125 309.605469 L 74.261719 309.605469 Z M 74.261719 279.082031 " fill-opacity="1" fill-rule="nonzero"/></g></g><g clip-path="url(#ce77533186)"><g clip-path="url(#17d4de75e5)"><path fill="#ff3131" d="M 132.152344 91.15625 L 162.675781 91.15625 L 162.675781 121.675781 L 132.152344 121.675781 Z M 132.152344 91.15625 " fill-opacity="1" fill-rule="nonzero"/></g></g><g clip-path="url(#6b92776e5a)"><g clip-path="url(#adaaa45c76)"><path fill="#ff3131" d="M 83.625 69.566406 L 114.144531 69.566406 L 114.144531 100.085938 L 83.625 100.085938 Z M 83.625 69.566406 " fill-opacity="1" fill-rule="nonzero"/></g></g><g clip-path="url(#acb21a4a4b)"><g clip-path="url(#99ad14690d)"><path fill="#ff3131" d="M 229.355469 245.292969 L 259.875 245.292969 L 259.875 275.8125 L 229.355469 275.8125 Z M 229.355469 245.292969 " fill-opacity="1" fill-rule="nonzero"/></g></g><g clip-path="url(#fcb2244856)"><g clip-path="url(#3789bc3d34)"><path fill="#ff3131" d="M 98.882812 -5.109375 L 123.402344 -5.109375 L 123.402344 19.410156 L 98.882812 19.410156 Z M 98.882812 -5.109375 " fill-opacity="1" fill-rule="nonzero"/></g></g><g clip-path="url(#b3f572fe5f)"><g clip-path="url(#9e3a81885b)"><path fill="#ff3131" d="M 31.699219 -0.679688 L 53.96875 -0.679688 L 53.96875 21.589844 L 31.699219 21.589844 Z M 31.699219 -0.679688 " fill-opacity="1" fill-rule="nonzero"/></g></g><g clip-path="url(#0de570d5f1)"><g clip-path="url(#8e7d91899d)"><path fill="#ff3131" d="M 243.074219 0 L 263.984375 0 L 263.984375 20.910156 L 243.074219 20.910156 Z M 243.074219 0 " fill-opacity="1" fill-rule="nonzero"/></g></g><g clip-path="url(#b783f11a1a)"><g clip-path="url(#8334aa96d5)"><path fill="#ff3131" d="M 0 83.816406 L 22.269531 83.816406 L 22.269531 106.082031 L 0 106.082031 Z M 0 83.816406 " fill-opacity="1" fill-rule="nonzero"/></g></g><g clip-path="url(#037ad964fe)"><g clip-path="url(#1f61ce0c5a)"><path fill="#ff3131" d="M -1.65625 129.070312 L 11.132812 129.070312 L 11.132812 141.863281 L -1.65625 141.863281 Z M -1.65625 129.070312 " fill-opacity="1" fill-rule="nonzero"/></g></g><g clip-path="url(#7ede9d2aa3)"><g clip-path="url(#b33d5227ab)"><path fill="#ff3131" d="M 28.664062 341.769531 L 46.542969 341.769531 L 46.542969 359.644531 L 28.664062 359.644531 Z M 28.664062 341.769531 " fill-opacity="1" fill-rule="nonzero"/></g></g><g clip-path="url(#e9997fd2be)"><g clip-path="url(#7c8b434eba)"><path fill="#ff3131" d="M 218.773438 141.863281 L 249.292969 141.863281 L 249.292969 172.382812 L 218.773438 172.382812 Z M 218.773438 141.863281 " fill-opacity="1" fill-rule="nonzero"/></g></g><g clip-path="url(#6e0f46bb9e)"><g clip-path="url(#04e9eee6e6)"><path fill="#ff3131" d="M 144.09375 216 L 174.613281 216 L 174.613281 246.519531 L 144.09375 246.519531 Z M 144.09375 216 " fill-opacity="1" fill-rule="nonzero"/></g></g><g clip-path="url(#5518d85774)"><g clip-path="url(#aa28223a00)"><path fill="#ff3131" d="M 151.820312 47.449219 L 173.53125 47.449219 L 173.53125 69.160156 L 151.820312 69.160156 Z M 151.820312 47.449219 " fill-opacity="1" fill-rule="nonzero"/></g></g><g clip-path="url(#7265bea045)"><g clip-path="url(#f790518a49)"><path fill="#ff3131" d="M 303.078125 135.464844 L 333.597656 135.464844 L 333.597656 165.988281 L 303.078125 165.988281 Z M 303.078125 135.464844 " fill-opacity="1" fill-rule="nonzero"/></g></g><g clip-path="url(#93c8a33417)"><g clip-path="url(#cb491d46f5)"><path fill="#ff3131" d="M 297.808594 270.144531 L 315.683594 270.144531 L 315.683594 288.023438 L 297.808594 288.023438 Z M 297.808594 270.144531 " fill-opacity="1" fill-rule="nonzero"/></g></g><g clip-path="url(#a66a1ae943)"><g clip-path="url(#f2f08bbe0f)"><path fill="#ff3131" d="M 285.199219 314.050781 L 303.078125 314.050781 L 303.078125 331.929688 L 285.199219 331.929688 Z M 285.199219 314.050781 " fill-opacity="1" fill-rule="nonzero"/></g></g><g clip-path="url(#0416938ad0)"><g clip-path="url(#729eb1d486)"><path fill="#ff3131" d="M 100.753906 342.605469 L 118.628906 342.605469 L 118.628906 360.480469 L 100.753906 360.480469 Z M 100.753906 342.605469 " fill-opacity="1" fill-rule="nonzero"/></g></g><g clip-path="url(#e30aef1d10)"><g clip-path="url(#6dfbe9ea0b)"><path fill="#ff3131" d="M 211.480469 290.160156 L 229.355469 290.160156 L 229.355469 308.039062 L 211.480469 308.039062 Z M 211.480469 290.160156 " fill-opacity="1" fill-rule="nonzero"/></g></g><g clip-path="url(#687e8a904e)"><g clip-path="url(#991c626439)"><path fill="#ff3131" d="M 0 163.445312 L 17.875 163.445312 L 17.875 181.320312 L 0 181.320312 Z M 0 163.445312 " fill-opacity="1" fill-rule="nonzero"/></g></g><g clip-path="url(#7184a918e4)"><g clip-path="url(#78e9777028)"><path fill="#ff3131" d="M 357.125 155.738281 L 375 155.738281 L 375 173.613281 L 357.125 173.613281 Z M 357.125 155.738281 " fill-opacity="1" fill-rule="nonzero"/></g></g><g clip-path="url(#4fe8e4a641)"><g clip-path="url(#c3348d2cd6)"><path fill="#ff3131" d="M 285.9375 20.839844 L 303.8125 20.839844 L 303.8125 38.714844 L 285.9375 38.714844 Z M 285.9375 20.839844 " fill-opacity="1" fill-rule="nonzero"/></g></g><g clip-path="url(#4016e2ff20)"><g clip-path="url(#1a9aadcb54)"><path fill="#ff3131" d="M 236.867188 26.289062 L 261.71875 26.289062 L 261.71875 51.140625 L 236.867188 51.140625 Z M 236.867188 26.289062 " fill-opacity="1" fill-rule="nonzero"/></g></g></svg>