<svg xmlns="http://www.w3.org/2000/svg" xmlns:xlink="http://www.w3.org/1999/xlink" width="500" zoomAndPan="magnify" viewBox="0 0 375 374.999991" height="500" preserveAspectRatio="xMidYMid meet" version="1.0"><defs><g/><clipPath id="416e53e504"><path d="M 52.191406 167 L 133.941406 167 L 133.941406 220.566406 L 52.191406 220.566406 Z M 52.191406 167 " clip-rule="nonzero"/></clipPath><clipPath id="78411ef94c"><path d="M 52.191406 138.816406 L 133.941406 138.816406 L 133.941406 182 L 52.191406 182 Z M 52.191406 138.816406 " clip-rule="nonzero"/></clipPath></defs><g clip-path="url(#416e53e504)"><path fill="#ff3131" d="M 134.199219 216.019531 L 129.394531 216.019531 L 129.394531 167.648438 L 114.820312 167.648438 L 114.820312 216.019531 L 110.015625 216.019531 L 110.015625 186.867188 L 95.597656 186.867188 L 95.597656 216.019531 L 90.792969 216.019531 L 90.792969 177.257812 L 76.378906 177.257812 L 76.378906 216.019531 L 71.574219 216.019531 L 71.574219 191.671875 L 57 191.671875 L 57 216.019531 L 52.191406 216.019531 L 52.191406 220.824219 L 134.199219 220.824219 Z M 134.199219 216.019531 " fill-opacity="1" fill-rule="nonzero"/></g><g clip-path="url(#78411ef94c)"><path fill="#ff3131" d="M 134.199219 158.035156 L 134.199219 138.816406 L 114.820312 138.816406 L 114.820312 143.621094 L 125.996094 143.621094 L 102.808594 166.652344 L 83.585938 147.429688 L 52.898438 177.960938 L 56.292969 181.359375 L 83.585938 154.226562 L 102.808594 173.445312 L 129.394531 147.019531 L 129.394531 158.035156 Z M 134.199219 158.035156 " fill-opacity="1" fill-rule="nonzero"/></g><g fill="#ffffff" fill-opacity="1"><g transform="translate(145.898432, 180.294715)"><g><path d="M 14.921875 -34.4375 C 16.753906 -34.4375 18.546875 -34.171875 20.296875 -33.640625 C 22.046875 -33.109375 23.34375 -32.582031 24.1875 -32.0625 L 25.421875 -31.234375 L 22.296875 -25.09375 C 22.054688 -25.257812 21.71875 -25.46875 21.28125 -25.71875 C 20.84375 -25.976562 20.019531 -26.328125 18.8125 -26.765625 C 17.613281 -27.203125 16.492188 -27.421875 15.453125 -27.421875 C 14.171875 -27.421875 13.179688 -27.144531 12.484375 -26.59375 C 11.785156 -26.050781 11.4375 -25.316406 11.4375 -24.390625 C 11.4375 -23.929688 11.597656 -23.503906 11.921875 -23.109375 C 12.253906 -22.710938 12.816406 -22.285156 13.609375 -21.828125 C 14.398438 -21.378906 15.097656 -21.019531 15.703125 -20.75 C 16.304688 -20.476562 17.234375 -20.066406 18.484375 -19.515625 C 20.671875 -18.585938 22.535156 -17.320312 24.078125 -15.71875 C 25.628906 -14.125 26.40625 -12.316406 26.40625 -10.296875 C 26.40625 -8.347656 26.054688 -6.648438 25.359375 -5.203125 C 24.660156 -3.753906 23.703125 -2.617188 22.484375 -1.796875 C 21.265625 -0.984375 19.914062 -0.378906 18.4375 0.015625 C 16.96875 0.410156 15.375 0.609375 13.65625 0.609375 C 12.175781 0.609375 10.722656 0.457031 9.296875 0.15625 C 7.878906 -0.132812 6.691406 -0.503906 5.734375 -0.953125 C 4.785156 -1.410156 3.925781 -1.859375 3.15625 -2.296875 C 2.394531 -2.734375 1.832031 -3.101562 1.46875 -3.40625 L 0.9375 -3.859375 L 4.796875 -10.328125 C 5.117188 -10.054688 5.566406 -9.707031 6.140625 -9.28125 C 6.722656 -8.863281 7.742188 -8.296875 9.203125 -7.578125 C 10.660156 -6.867188 11.953125 -6.515625 13.078125 -6.515625 C 16.328125 -6.515625 17.953125 -7.625 17.953125 -9.84375 C 17.953125 -10.300781 17.835938 -10.726562 17.609375 -11.125 C 17.378906 -11.519531 16.96875 -11.914062 16.375 -12.3125 C 15.789062 -12.71875 15.269531 -13.035156 14.8125 -13.265625 C 14.363281 -13.492188 13.625 -13.847656 12.59375 -14.328125 C 11.570312 -14.804688 10.816406 -15.171875 10.328125 -15.421875 C 8.273438 -16.429688 6.6875 -17.691406 5.5625 -19.203125 C 4.445312 -20.722656 3.890625 -22.359375 3.890625 -24.109375 C 3.890625 -27.140625 5.007812 -29.617188 7.25 -31.546875 C 9.5 -33.472656 12.054688 -34.4375 14.921875 -34.4375 Z M 14.921875 -34.4375 "/></g></g></g><g fill="#ffffff" fill-opacity="1"><g transform="translate(173.445195, 180.294715)"><g><path d="M 10.171875 -33.828125 L 10.171875 0 L 2.453125 0 L 2.453125 -33.828125 Z M 10.171875 -33.828125 "/></g></g></g><g fill="#ffffff" fill-opacity="1"><g transform="translate(186.070797, 180.294715)"><g><path d="M 10.171875 -33.828125 L 10.171875 -6.765625 L 21.8125 -6.765625 L 21.8125 0 L 2.453125 0 L 2.453125 -33.828125 Z M 10.171875 -33.828125 "/></g></g></g><g fill="#ffffff" fill-opacity="1"><g transform="translate(209.231394, 180.294715)"><g><path d="M 21.8125 -33.828125 L 21.8125 -27.0625 L 10.171875 -27.0625 L 10.171875 -20.34375 L 21.3125 -20.34375 L 21.3125 -13.578125 L 10.171875 -13.578125 L 10.171875 -6.765625 L 21.8125 -6.765625 L 21.8125 0 L 2.453125 0 L 2.453125 -33.828125 Z M 21.8125 -33.828125 "/></g></g></g><g fill="#ffffff" fill-opacity="1"><g transform="translate(233.006871, 180.294715)"><g><path d="M 2.453125 -33.828125 L 14.5625 -33.828125 C 17.8125 -33.828125 20.457031 -32.957031 22.5 -31.21875 C 24.550781 -29.488281 25.578125 -27.007812 25.578125 -23.78125 C 25.578125 -21.289062 24.957031 -19.203125 23.71875 -17.515625 C 22.476562 -15.835938 20.789062 -14.660156 18.65625 -13.984375 L 30.296875 0 L 20.5 0 L 10.171875 -13.359375 L 10.171875 0 L 2.453125 0 Z M 10.171875 -18.8125 L 11.0625 -18.8125 C 11.78125 -18.8125 12.382812 -18.828125 12.875 -18.859375 C 13.363281 -18.890625 13.921875 -18.984375 14.546875 -19.140625 C 15.179688 -19.304688 15.6875 -19.539062 16.0625 -19.84375 C 16.445312 -20.144531 16.773438 -20.582031 17.046875 -21.15625 C 17.328125 -21.726562 17.46875 -22.425781 17.46875 -23.25 C 17.46875 -24.070312 17.328125 -24.769531 17.046875 -25.34375 C 16.773438 -25.914062 16.445312 -26.347656 16.0625 -26.640625 C 15.6875 -26.941406 15.179688 -27.175781 14.546875 -27.34375 C 13.921875 -27.507812 13.363281 -27.601562 12.875 -27.625 C 12.382812 -27.65625 11.78125 -27.671875 11.0625 -27.671875 L 10.171875 -27.671875 Z M 10.171875 -18.8125 "/></g></g></g><g fill="#ffffff" fill-opacity="1"><g transform="translate(262.35728, 180.294715)"><g><path d="M 0.9375 -16.9375 C 0.9375 -21.820312 2.601562 -25.957031 5.9375 -29.34375 C 9.28125 -32.738281 13.300781 -34.4375 18 -34.4375 C 22.726562 -34.4375 26.742188 -32.75 30.046875 -29.375 C 33.359375 -26 35.015625 -21.851562 35.015625 -16.9375 C 35.015625 -11.988281 33.382812 -7.828125 30.125 -4.453125 C 26.875 -1.078125 22.832031 0.609375 18 0.609375 C 13.050781 0.609375 8.96875 -1.0625 5.75 -4.40625 C 2.539062 -7.757812 0.9375 -11.9375 0.9375 -16.9375 Z M 9.265625 -16.9375 C 9.265625 -15.15625 9.535156 -13.53125 10.078125 -12.0625 C 10.628906 -10.601562 11.585938 -9.367188 12.953125 -8.359375 C 14.316406 -7.347656 16 -6.84375 18 -6.84375 C 20.863281 -6.84375 23.023438 -7.828125 24.484375 -9.796875 C 25.953125 -11.765625 26.6875 -14.144531 26.6875 -16.9375 C 26.6875 -19.695312 25.941406 -22.066406 24.453125 -24.046875 C 22.960938 -26.023438 20.8125 -27.015625 18 -27.015625 C 15.207031 -27.015625 13.050781 -26.023438 11.53125 -24.046875 C 10.019531 -22.066406 9.265625 -19.695312 9.265625 -16.9375 Z M 9.265625 -16.9375 "/></g></g></g><g fill="#ffffff" fill-opacity="1"><g transform="translate(298.307438, 180.294715)"><g><path d="M 30.421875 0 L 28.828125 -20.046875 L 28.625 -20.046875 L 21.6875 -0.203125 L 17.09375 -0.203125 L 10.171875 -20.046875 L 9.96875 -20.046875 L 8.359375 0 L 0.65625 0 L 3.6875 -33.828125 L 11.890625 -33.828125 L 19.390625 -14.3125 L 26.890625 -33.828125 L 35.09375 -33.828125 L 38.125 0 Z M 30.421875 0 "/></g></g></g><g fill="#ffffff" fill-opacity="1"><g transform="translate(151.319892, 219.899986)"><g><path d="M 8.640625 -0.609375 C 7.535156 -0.296875 6.472656 -0.117188 5.453125 -0.078125 C 4.429688 -0.046875 3.570312 -0.160156 2.875 -0.421875 C 2.1875 -0.691406 1.738281 -1.113281 1.53125 -1.6875 C 1.320312 -2.269531 1.484375 -3.023438 2.015625 -3.953125 C 2.015625 -4.265625 2.007812 -4.769531 2 -5.46875 C 1.988281 -6.164062 1.984375 -6.929688 1.984375 -7.765625 C 1.984375 -8.609375 1.984375 -9.421875 1.984375 -10.203125 C 1.984375 -10.984375 2.003906 -11.601562 2.046875 -12.0625 C 2.148438 -13.40625 2.207031 -14.726562 2.21875 -16.03125 C 2.226562 -17.34375 2.101562 -18.613281 1.84375 -19.84375 C 1.863281 -20.175781 1.84375 -20.488281 1.78125 -20.78125 C 1.71875 -21.082031 1.664062 -21.390625 1.625 -21.703125 C 1.351562 -22.546875 1.375 -23.25 1.6875 -23.8125 C 2 -24.375 2.515625 -24.789062 3.234375 -25.0625 C 3.984375 -25.34375 4.890625 -25.453125 5.953125 -25.390625 C 7.023438 -25.335938 8.171875 -25.164062 9.390625 -24.875 C 10.617188 -24.582031 11.84375 -24.25 13.0625 -23.875 C 14.269531 -23.507812 15.359375 -22.832031 16.328125 -21.84375 C 17.296875 -20.863281 18.070312 -19.707031 18.65625 -18.375 C 19.25 -17.039062 19.519531 -15.644531 19.46875 -14.1875 C 19.445312 -13.195312 19.332031 -12.082031 19.125 -10.84375 C 18.925781 -9.613281 18.550781 -8.398438 18 -7.203125 C 17.445312 -6.003906 16.59375 -4.9375 15.4375 -4 C 14.625 -3.320312 13.671875 -2.695312 12.578125 -2.125 C 11.484375 -1.550781 10.171875 -1.046875 8.640625 -0.609375 Z M 5.578125 -3.953125 C 6.921875 -4.171875 8.175781 -4.472656 9.34375 -4.859375 C 10.507812 -5.242188 11.554688 -5.796875 12.484375 -6.515625 C 13.472656 -7.285156 14.25 -8.265625 14.8125 -9.453125 C 15.375 -10.640625 15.644531 -12.0625 15.625 -13.71875 C 15.601562 -15.101562 15.34375 -16.3125 14.84375 -17.34375 C 14.351562 -18.382812 13.582031 -19.238281 12.53125 -19.90625 C 10.75 -21.101562 8.359375 -21.71875 5.359375 -21.75 C 5.554688 -20.207031 5.671875 -18.578125 5.703125 -16.859375 C 5.742188 -15.148438 5.726562 -13.644531 5.65625 -12.34375 C 5.625 -11.863281 5.597656 -11.1875 5.578125 -10.3125 C 5.554688 -9.4375 5.546875 -8.535156 5.546875 -7.609375 C 5.546875 -6.691406 5.546875 -5.890625 5.546875 -5.203125 C 5.546875 -4.515625 5.554688 -4.097656 5.578125 -3.953125 Z M 5.578125 -3.953125 "/></g></g></g><g fill="#ffffff" fill-opacity="1"><g transform="translate(172.235937, 219.899986)"><g><path d="M 9.75 -0.390625 C 8.570312 -0.148438 7.390625 -0.0234375 6.203125 -0.015625 C 5.015625 -0.00390625 3.988281 0 3.125 0 C 2.695312 -0.0195312 2.363281 -0.144531 2.125 -0.375 C 1.882812 -0.601562 1.710938 -0.875 1.609375 -1.1875 C 1.515625 -1.5 1.457031 -1.75 1.4375 -1.9375 C 1.414062 -2.207031 1.660156 -2.457031 2.171875 -2.6875 C 2.691406 -2.914062 3.179688 -3.085938 3.640625 -3.203125 C 3.847656 -3.253906 4.054688 -3.289062 4.265625 -3.3125 C 4.472656 -3.332031 4.644531 -3.34375 4.78125 -3.34375 C 4.8125 -3.5625 4.816406 -3.925781 4.796875 -4.4375 C 4.785156 -4.957031 4.773438 -5.492188 4.765625 -6.046875 C 4.753906 -6.597656 4.75 -7.03125 4.75 -7.34375 C 4.75 -7.707031 4.78125 -8.085938 4.84375 -8.484375 C 4.90625 -8.878906 4.9375 -9.265625 4.9375 -9.640625 C 4.9375 -9.910156 4.910156 -10.1875 4.859375 -10.46875 C 4.804688 -10.757812 4.796875 -11.035156 4.828125 -11.296875 C 4.898438 -12.335938 4.914062 -13.492188 4.875 -14.765625 C 4.84375 -16.035156 4.800781 -17.285156 4.75 -18.515625 C 4.707031 -19.753906 4.707031 -20.832031 4.75 -21.75 C 4.769531 -22.101562 4.5625 -22.3125 4.125 -22.375 C 3.695312 -22.4375 3.234375 -22.515625 2.734375 -22.609375 C 2.441406 -22.679688 2.25 -22.820312 2.15625 -23.03125 C 2.0625 -23.25 2.003906 -23.441406 1.984375 -23.609375 C 1.953125 -23.878906 2.03125 -24.144531 2.21875 -24.40625 C 2.414062 -24.664062 2.695312 -24.847656 3.0625 -24.953125 C 3.65625 -25.117188 4.34375 -25.210938 5.125 -25.234375 C 5.90625 -25.253906 6.640625 -25.257812 7.328125 -25.25 C 8.015625 -25.238281 8.507812 -25.222656 8.8125 -25.203125 C 9.582031 -25.109375 10.144531 -24.945312 10.5 -24.71875 C 10.863281 -24.488281 11.070312 -24.132812 11.125 -23.65625 C 11.175781 -23.34375 11.101562 -23.070312 10.90625 -22.84375 C 10.71875 -22.613281 10.453125 -22.40625 10.109375 -22.21875 C 9.972656 -22.113281 9.757812 -22.070312 9.46875 -22.09375 C 9.175781 -22.125 8.921875 -22.144531 8.703125 -22.15625 C 8.492188 -22.164062 8.378906 -22.085938 8.359375 -21.921875 C 8.285156 -21.035156 8.269531 -19.960938 8.3125 -18.703125 C 8.363281 -17.441406 8.40625 -16.175781 8.4375 -14.90625 C 8.476562 -13.632812 8.4375 -12.503906 8.3125 -11.515625 C 8.289062 -11.234375 8.304688 -10.945312 8.359375 -10.65625 C 8.421875 -10.363281 8.441406 -10.085938 8.421875 -9.828125 C 8.398438 -9.398438 8.363281 -8.984375 8.3125 -8.578125 C 8.269531 -8.179688 8.25 -7.804688 8.25 -7.453125 C 8.25 -7.066406 8.253906 -6.578125 8.265625 -5.984375 C 8.273438 -5.398438 8.289062 -4.851562 8.3125 -4.34375 C 8.34375 -3.84375 8.367188 -3.507812 8.390625 -3.34375 C 8.867188 -3.46875 9.347656 -3.535156 9.828125 -3.546875 C 10.304688 -3.554688 10.691406 -3.503906 10.984375 -3.390625 C 11.390625 -3.210938 11.695312 -3.035156 11.90625 -2.859375 C 12.125 -2.679688 12.25 -2.390625 12.28125 -1.984375 C 12.300781 -1.453125 12.113281 -1.101562 11.71875 -0.9375 C 11.320312 -0.769531 10.664062 -0.585938 9.75 -0.390625 Z M 9.75 -0.390625 "/></g></g></g><g fill="#ffffff" fill-opacity="1"><g transform="translate(185.951966, 219.899986)"><g><path d="M 9.109375 0.359375 C 8.148438 0.359375 7.234375 0.1875 6.359375 -0.15625 C 5.484375 -0.507812 4.71875 -1.007812 4.0625 -1.65625 C 3.632812 -2.113281 3.234375 -2.65625 2.859375 -3.28125 C 2.484375 -3.90625 2.191406 -4.539062 1.984375 -5.1875 C 1.785156 -5.832031 1.703125 -6.421875 1.734375 -6.953125 C 1.804688 -7.910156 1.773438 -8.863281 1.640625 -9.8125 C 1.503906 -10.757812 1.4375 -11.566406 1.4375 -12.234375 C 1.4375 -12.859375 1.484375 -13.71875 1.578125 -14.8125 C 1.679688 -15.90625 1.972656 -17.039062 2.453125 -18.21875 C 2.835938 -19.125 3.285156 -20.007812 3.796875 -20.875 C 4.316406 -21.738281 4.972656 -22.53125 5.765625 -23.25 C 6.628906 -24.070312 7.519531 -24.613281 8.4375 -24.875 C 9.363281 -25.132812 10.1875 -25.28125 10.90625 -25.3125 C 12.101562 -25.351562 13.171875 -25.054688 14.109375 -24.421875 C 15.046875 -23.785156 15.828125 -23.097656 16.453125 -22.359375 C 16.984375 -21.734375 17.296875 -21.128906 17.390625 -20.546875 C 17.484375 -19.972656 17.382812 -19.519531 17.09375 -19.1875 C 16.925781 -18.96875 16.59375 -18.859375 16.09375 -18.859375 C 15.59375 -18.859375 15.113281 -19.050781 14.65625 -19.4375 C 14.414062 -19.632812 14.226562 -19.867188 14.09375 -20.140625 C 13.957031 -20.421875 13.695312 -20.691406 13.3125 -20.953125 C 12.9375 -21.410156 12.4375 -21.691406 11.8125 -21.796875 C 11.1875 -21.898438 10.535156 -21.878906 9.859375 -21.734375 C 9.191406 -21.597656 8.597656 -21.375 8.078125 -21.0625 C 7.566406 -20.75 7.210938 -20.390625 7.015625 -19.984375 C 6.847656 -19.546875 6.566406 -19.046875 6.171875 -18.484375 C 5.773438 -17.921875 5.484375 -17.351562 5.296875 -16.78125 C 5.078125 -16.101562 4.953125 -15.382812 4.921875 -14.625 C 4.898438 -13.875 4.890625 -13.128906 4.890625 -12.390625 C 4.890625 -11.972656 4.882812 -11.410156 4.875 -10.703125 C 4.863281 -9.992188 4.863281 -9.273438 4.875 -8.546875 C 4.882812 -7.816406 4.941406 -7.203125 5.046875 -6.703125 C 5.179688 -6.023438 5.476562 -5.394531 5.9375 -4.8125 C 6.394531 -4.238281 6.941406 -3.769531 7.578125 -3.40625 C 8.210938 -3.050781 8.867188 -2.875 9.546875 -2.875 C 10.453125 -2.875 11.320312 -3.046875 12.15625 -3.390625 C 13 -3.742188 13.628906 -4.296875 14.046875 -5.046875 C 14.285156 -5.453125 14.457031 -5.945312 14.5625 -6.53125 C 14.664062 -7.125 14.726562 -7.726562 14.75 -8.34375 C 14.78125 -8.96875 14.78125 -9.546875 14.75 -10.078125 C 14.726562 -10.609375 14.707031 -10.992188 14.6875 -11.234375 C 13.875 -11.328125 13.019531 -11.347656 12.125 -11.296875 C 11.238281 -11.253906 10.554688 -11.289062 10.078125 -11.40625 C 8.828125 -11.75 8.203125 -12.253906 8.203125 -12.921875 C 8.179688 -13.253906 8.25 -13.546875 8.40625 -13.796875 C 8.5625 -14.054688 8.867188 -14.304688 9.328125 -14.546875 C 9.785156 -14.804688 10.320312 -14.953125 10.9375 -14.984375 C 11.5625 -15.023438 12.21875 -15.03125 12.90625 -15 C 13.59375 -14.976562 14.234375 -14.984375 14.828125 -15.015625 C 15.234375 -15.035156 15.648438 -14.984375 16.078125 -14.859375 C 16.515625 -14.742188 16.90625 -14.5 17.25 -14.125 C 17.601562 -13.757812 17.878906 -13.179688 18.078125 -12.390625 C 18.210938 -11.835938 18.296875 -11.238281 18.328125 -10.59375 C 18.367188 -9.957031 18.378906 -9.367188 18.359375 -8.828125 C 18.335938 -8.296875 18.289062 -7.910156 18.21875 -7.671875 C 17.976562 -6.847656 17.921875 -6.117188 18.046875 -5.484375 C 18.179688 -4.847656 18.332031 -4.410156 18.5 -4.171875 C 18.863281 -3.597656 18.9375 -3.113281 18.71875 -2.71875 C 18.5 -2.320312 18.140625 -2.023438 17.640625 -1.828125 C 17.140625 -1.640625 16.625 -1.546875 16.09375 -1.546875 C 15.5625 -1.546875 15.15625 -1.65625 14.875 -1.875 C 14.03125 -1.101562 13.101562 -0.53125 12.09375 -0.15625 C 11.082031 0.207031 10.085938 0.378906 9.109375 0.359375 Z M 9.109375 0.359375 "/></g></g></g><g fill="#ffffff" fill-opacity="1"><g transform="translate(206.184009, 219.899986)"><g><path d="M 9.75 -0.390625 C 8.570312 -0.148438 7.390625 -0.0234375 6.203125 -0.015625 C 5.015625 -0.00390625 3.988281 0 3.125 0 C 2.695312 -0.0195312 2.363281 -0.144531 2.125 -0.375 C 1.882812 -0.601562 1.710938 -0.875 1.609375 -1.1875 C 1.515625 -1.5 1.457031 -1.75 1.4375 -1.9375 C 1.414062 -2.207031 1.660156 -2.457031 2.171875 -2.6875 C 2.691406 -2.914062 3.179688 -3.085938 3.640625 -3.203125 C 3.847656 -3.253906 4.054688 -3.289062 4.265625 -3.3125 C 4.472656 -3.332031 4.644531 -3.34375 4.78125 -3.34375 C 4.8125 -3.5625 4.816406 -3.925781 4.796875 -4.4375 C 4.785156 -4.957031 4.773438 -5.492188 4.765625 -6.046875 C 4.753906 -6.597656 4.75 -7.03125 4.75 -7.34375 C 4.75 -7.707031 4.78125 -8.085938 4.84375 -8.484375 C 4.90625 -8.878906 4.9375 -9.265625 4.9375 -9.640625 C 4.9375 -9.910156 4.910156 -10.1875 4.859375 -10.46875 C 4.804688 -10.757812 4.796875 -11.035156 4.828125 -11.296875 C 4.898438 -12.335938 4.914062 -13.492188 4.875 -14.765625 C 4.84375 -16.035156 4.800781 -17.285156 4.75 -18.515625 C 4.707031 -19.753906 4.707031 -20.832031 4.75 -21.75 C 4.769531 -22.101562 4.5625 -22.3125 4.125 -22.375 C 3.695312 -22.4375 3.234375 -22.515625 2.734375 -22.609375 C 2.441406 -22.679688 2.25 -22.820312 2.15625 -23.03125 C 2.0625 -23.25 2.003906 -23.441406 1.984375 -23.609375 C 1.953125 -23.878906 2.03125 -24.144531 2.21875 -24.40625 C 2.414062 -24.664062 2.695312 -24.847656 3.0625 -24.953125 C 3.65625 -25.117188 4.34375 -25.210938 5.125 -25.234375 C 5.90625 -25.253906 6.640625 -25.257812 7.328125 -25.25 C 8.015625 -25.238281 8.507812 -25.222656 8.8125 -25.203125 C 9.582031 -25.109375 10.144531 -24.945312 10.5 -24.71875 C 10.863281 -24.488281 11.070312 -24.132812 11.125 -23.65625 C 11.175781 -23.34375 11.101562 -23.070312 10.90625 -22.84375 C 10.71875 -22.613281 10.453125 -22.40625 10.109375 -22.21875 C 9.972656 -22.113281 9.757812 -22.070312 9.46875 -22.09375 C 9.175781 -22.125 8.921875 -22.144531 8.703125 -22.15625 C 8.492188 -22.164062 8.378906 -22.085938 8.359375 -21.921875 C 8.285156 -21.035156 8.269531 -19.960938 8.3125 -18.703125 C 8.363281 -17.441406 8.40625 -16.175781 8.4375 -14.90625 C 8.476562 -13.632812 8.4375 -12.503906 8.3125 -11.515625 C 8.289062 -11.234375 8.304688 -10.945312 8.359375 -10.65625 C 8.421875 -10.363281 8.441406 -10.085938 8.421875 -9.828125 C 8.398438 -9.398438 8.363281 -8.984375 8.3125 -8.578125 C 8.269531 -8.179688 8.25 -7.804688 8.25 -7.453125 C 8.25 -7.066406 8.253906 -6.578125 8.265625 -5.984375 C 8.273438 -5.398438 8.289062 -4.851562 8.3125 -4.34375 C 8.34375 -3.84375 8.367188 -3.507812 8.390625 -3.34375 C 8.867188 -3.46875 9.347656 -3.535156 9.828125 -3.546875 C 10.304688 -3.554688 10.691406 -3.503906 10.984375 -3.390625 C 11.390625 -3.210938 11.695312 -3.035156 11.90625 -2.859375 C 12.125 -2.679688 12.25 -2.390625 12.28125 -1.984375 C 12.300781 -1.453125 12.113281 -1.101562 11.71875 -0.9375 C 11.320312 -0.769531 10.664062 -0.585938 9.75 -0.390625 Z M 9.75 -0.390625 "/></g></g></g><g fill="#ffffff" fill-opacity="1"><g transform="translate(219.900038, 219.899986)"><g><path d="M 10.46875 0 C 10.039062 0 9.671875 -0.160156 9.359375 -0.484375 C 9.046875 -0.804688 8.828125 -1.1875 8.703125 -1.625 C 8.585938 -2.070312 8.554688 -2.488281 8.609375 -2.875 C 8.648438 -3.238281 8.691406 -3.703125 8.734375 -4.265625 C 8.785156 -4.828125 8.800781 -5.457031 8.78125 -6.15625 C 8.757812 -7.238281 8.71875 -8.425781 8.65625 -9.71875 C 8.59375 -11.007812 8.625 -12.28125 8.75 -13.53125 C 8.863281 -14.613281 8.894531 -15.691406 8.84375 -16.765625 C 8.800781 -17.847656 8.742188 -18.820312 8.671875 -19.6875 C 8.597656 -20.550781 8.5625 -21.175781 8.5625 -21.5625 C 8.25 -21.539062 7.800781 -21.503906 7.21875 -21.453125 C 6.632812 -21.410156 6.050781 -21.367188 5.46875 -21.328125 C 4.894531 -21.296875 4.441406 -21.289062 4.109375 -21.3125 C 3.191406 -21.382812 2.519531 -21.546875 2.09375 -21.796875 C 1.675781 -22.046875 1.457031 -22.363281 1.4375 -22.75 C 1.414062 -23.1875 1.566406 -23.535156 1.890625 -23.796875 C 2.210938 -24.054688 2.640625 -24.257812 3.171875 -24.40625 C 3.867188 -24.601562 4.664062 -24.757812 5.5625 -24.875 C 6.457031 -25 7.375 -25.085938 8.3125 -25.140625 C 9.25 -25.203125 10.101562 -25.207031 10.875 -25.15625 C 11.375 -25.15625 12.210938 -25.171875 13.390625 -25.203125 C 14.566406 -25.242188 15.890625 -25.179688 17.359375 -25.015625 C 18.316406 -24.921875 18.925781 -24.710938 19.1875 -24.390625 C 19.445312 -24.066406 19.578125 -23.554688 19.578125 -22.859375 C 19.578125 -22.671875 19.484375 -22.429688 19.296875 -22.140625 C 19.109375 -21.847656 18.847656 -21.578125 18.515625 -21.328125 C 18.191406 -21.078125 17.84375 -20.910156 17.46875 -20.828125 C 17.101562 -20.742188 16.753906 -20.820312 16.421875 -21.0625 C 16.148438 -21.25 15.738281 -21.394531 15.1875 -21.5 C 14.632812 -21.613281 14.09375 -21.691406 13.5625 -21.734375 C 13.039062 -21.785156 12.679688 -21.789062 12.484375 -21.75 C 12.484375 -21.695312 12.46875 -21.414062 12.4375 -20.90625 C 12.40625 -20.40625 12.367188 -19.769531 12.328125 -19 C 12.296875 -18.238281 12.269531 -17.421875 12.25 -16.546875 C 12.238281 -15.671875 12.269531 -14.820312 12.34375 -14 C 12.46875 -12.6875 12.488281 -11.347656 12.40625 -9.984375 C 12.320312 -8.628906 12.335938 -7.316406 12.453125 -6.046875 C 12.523438 -5.328125 12.53125 -4.628906 12.46875 -3.953125 C 12.414062 -3.285156 12.398438 -2.703125 12.421875 -2.203125 C 12.460938 -1.304688 12.285156 -0.71875 11.890625 -0.4375 C 11.492188 -0.164062 11.019531 -0.0195312 10.46875 0 Z M 10.46875 0 "/></g></g></g><g fill="#ffffff" fill-opacity="1"><g transform="translate(240.924081, 219.899986)"><g><path d="M 2.15625 1.265625 C 1.875 1.234375 1.628906 1.140625 1.421875 0.984375 C 1.210938 0.828125 1.132812 0.488281 1.1875 -0.03125 C 1.257812 -0.800781 1.425781 -1.835938 1.6875 -3.140625 C 1.957031 -4.453125 2.28125 -5.84375 2.65625 -7.3125 C 2.707031 -7.5 2.796875 -7.710938 2.921875 -7.953125 C 3.054688 -8.191406 3.160156 -8.421875 3.234375 -8.640625 C 3.597656 -9.910156 4.019531 -11.171875 4.5 -12.421875 C 4.976562 -13.671875 5.410156 -14.894531 5.796875 -16.09375 C 5.867188 -16.332031 5.957031 -16.566406 6.0625 -16.796875 C 6.175781 -17.023438 6.28125 -17.234375 6.375 -17.421875 C 6.851562 -18.671875 7.34375 -19.851562 7.84375 -20.96875 C 8.351562 -22.082031 8.8125 -22.878906 9.21875 -23.359375 C 10.175781 -24.515625 11.113281 -25.09375 12.03125 -25.09375 C 12.914062 -25.09375 13.742188 -24.53125 14.515625 -23.40625 C 15.085938 -22.539062 15.65625 -21.148438 16.21875 -19.234375 C 16.78125 -17.328125 17.296875 -15.039062 17.765625 -12.375 C 18.234375 -9.71875 18.613281 -6.804688 18.90625 -3.640625 C 18.925781 -3.535156 18.972656 -3.296875 19.046875 -2.921875 C 19.117188 -2.554688 19.15625 -2.144531 19.15625 -1.6875 C 19.15625 -1.238281 19.050781 -0.84375 18.84375 -0.5 C 18.644531 -0.164062 18.269531 0 17.71875 0 C 17.132812 0 16.660156 -0.191406 16.296875 -0.578125 C 15.941406 -0.960938 15.671875 -1.453125 15.484375 -2.046875 C 15.410156 -2.265625 15.335938 -2.59375 15.265625 -3.03125 C 15.191406 -3.476562 15.117188 -3.953125 15.046875 -4.453125 C 14.972656 -4.960938 14.90625 -5.4375 14.84375 -5.875 C 14.789062 -6.320312 14.75 -6.65625 14.71875 -6.875 C 13.09375 -6.820312 11.769531 -6.789062 10.75 -6.78125 C 9.726562 -6.769531 8.90625 -6.769531 8.28125 -6.78125 C 7.65625 -6.789062 7.128906 -6.785156 6.703125 -6.765625 C 6.523438 -6.210938 6.316406 -5.535156 6.078125 -4.734375 C 5.835938 -3.929688 5.570312 -3.113281 5.28125 -2.28125 C 5 -1.457031 4.691406 -0.742188 4.359375 -0.140625 C 4.191406 0.140625 3.921875 0.445312 3.546875 0.78125 C 3.171875 1.125 2.707031 1.285156 2.15625 1.265625 Z M 9.359375 -14.765625 L 7.703125 -10.1875 C 8.972656 -10.09375 10.210938 -10.066406 11.421875 -10.109375 C 12.640625 -10.160156 13.617188 -10.1875 14.359375 -10.1875 C 14.171875 -11.625 13.972656 -12.929688 13.765625 -14.109375 C 13.566406 -15.285156 13.328125 -16.398438 13.046875 -17.453125 C 12.773438 -18.515625 12.398438 -19.582031 11.921875 -20.65625 C 11.554688 -19.9375 11.15625 -19.171875 10.71875 -18.359375 C 10.289062 -17.546875 9.910156 -16.671875 9.578125 -15.734375 C 9.484375 -15.566406 9.4375 -15.40625 9.4375 -15.25 C 9.4375 -15.09375 9.410156 -14.929688 9.359375 -14.765625 Z M 9.359375 -14.765625 "/></g></g></g><g fill="#ffffff" fill-opacity="1"><g transform="translate(261.516121, 219.899986)"><g><path d="M 7.203125 0 C 6.210938 0 5.316406 -0.101562 4.515625 -0.3125 C 3.710938 -0.53125 3.113281 -0.96875 2.71875 -1.625 C 2.320312 -2.289062 2.21875 -3.273438 2.40625 -4.578125 C 2.457031 -4.765625 2.488281 -5.179688 2.5 -5.828125 C 2.507812 -6.472656 2.507812 -7.226562 2.5 -8.09375 C 2.488281 -8.957031 2.453125 -9.816406 2.390625 -10.671875 C 2.328125 -11.523438 2.238281 -12.226562 2.125 -12.78125 C 2.050781 -13.207031 1.957031 -13.828125 1.84375 -14.640625 C 1.738281 -15.460938 1.644531 -16.378906 1.5625 -17.390625 C 1.476562 -18.398438 1.441406 -19.40625 1.453125 -20.40625 C 1.460938 -21.414062 1.539062 -22.304688 1.6875 -23.078125 C 1.8125 -23.742188 1.96875 -24.253906 2.15625 -24.609375 C 2.351562 -24.972656 2.703125 -25.15625 3.203125 -25.15625 C 3.878906 -25.15625 4.328125 -25.046875 4.546875 -24.828125 C 4.773438 -24.617188 4.890625 -24.273438 4.890625 -23.796875 C 4.890625 -21.847656 4.984375 -19.976562 5.171875 -18.1875 C 5.367188 -16.40625 5.5625 -14.613281 5.75 -12.8125 C 5.945312 -11.007812 6.046875 -9.101562 6.046875 -7.09375 C 6.046875 -6.445312 6.082031 -5.90625 6.15625 -5.46875 C 6.226562 -5.039062 6.238281 -4.691406 6.1875 -4.421875 C 6.1875 -4.179688 6.429688 -4 6.921875 -3.875 C 7.421875 -3.757812 8.023438 -3.703125 8.734375 -3.703125 C 9.441406 -3.703125 10.140625 -3.75 10.828125 -3.84375 C 11.523438 -3.945312 12.09375 -4.082031 12.53125 -4.25 C 13.4375 -4.632812 14.238281 -4.832031 14.9375 -4.84375 C 15.632812 -4.851562 16.09375 -4.628906 16.3125 -4.171875 C 16.5 -3.816406 16.554688 -3.445312 16.484375 -3.0625 C 16.410156 -2.675781 16.078125 -2.242188 15.484375 -1.765625 C 14.835938 -1.234375 14.035156 -0.847656 13.078125 -0.609375 C 12.128906 -0.367188 11.140625 -0.207031 10.109375 -0.125 C 9.078125 -0.0390625 8.109375 0 7.203125 0 Z M 7.203125 0 "/></g></g></g></svg>